<?xml version="1.0" encoding="UTF-8"?>
<svg version="1.1" xmlns="http://www.w3.org/2000/svg" width="1408" height="768">
<path d="M0 0 C464.64 0 929.28 0 1408 0 C1408 253.44 1408 506.88 1408 768 C943.36 768 478.72 768 0 768 C0 514.56 0 261.12 0 0 Z " fill="#FDFDFD" transform="translate(0,0)"/>
<path d="M0 0 C0.72782684 -0.00100708 1.45565369 -0.00201416 2.20553589 -0.00305176 C14.40931162 0.00832596 26.20546509 0.78123259 38.1875 3.25 C38.87972656 3.38921875 39.57195312 3.5284375 40.28515625 3.671875 C44.98698221 4.65028965 49.58917069 5.86748873 54.1875 7.25 C54.94321289 7.4763916 55.69892578 7.7027832 56.47753906 7.93603516 C75.71737581 13.85328093 93.31480149 22.8729534 109.1875 35.25 C110.10144531 35.94222656 111.01539063 36.63445312 111.95703125 37.34765625 C166.09255715 79.75249718 188.52752939 150.24899415 196.8112793 215.93725586 C198.24894336 228.59634976 198.38501249 241.21454752 198.375 253.9375 C198.37608765 255.3499147 198.37608765 255.3499147 198.37719727 256.79086304 C198.37601791 270.6927202 197.90581505 284.42235808 196.625 298.26953125 C196.47864953 299.92964199 196.33273982 301.58979172 196.1875 303.25 C196.08566406 304.3946875 195.98382812 305.539375 195.87890625 306.71875 C195.96422423 309.34856611 195.96422423 309.34856611 197.83984375 311.19921875 C198.59394531 311.77285156 199.34804688 312.34648437 200.125 312.9375 C205.62468665 317.48184202 209.87893158 322.58240307 214.1875 328.25 C214.94160156 329.23871094 215.69570313 330.22742188 216.47265625 331.24609375 C226.07822606 344.44345467 231.93381457 358.29407371 235.1875 374.25 C235.36764648 374.96849121 235.54779297 375.68698242 235.73339844 376.42724609 C236.34525898 380.23065015 236.23125844 383.9680267 236.14453125 387.8046875 C236.12214237 389.48826946 236.10068703 391.17186406 236.08007812 392.85546875 C236.0430295 395.49107361 235.9999769 398.12602655 235.94067383 400.76123047 C235.8859142 403.31747678 235.85702125 405.87299894 235.83203125 408.4296875 C235.79635796 409.59877151 235.79635796 409.59877151 235.75996399 410.79147339 C235.73298465 416.4789953 237.1873043 419.44932344 240.1875 424.25 C240.90489158 427.3169287 240.85461738 430.29326376 240.8125 433.4375 C240.80629639 434.27031494 240.80009277 435.10312988 240.79370117 435.96118164 C240.54197473 443.28961209 238.70818539 449.35643836 234.1875 455.25 C228.54741957 460.280342 224.46920353 461.81765226 216.95703125 461.70703125 C212.58188519 460.98503959 209.86362605 458.70876669 207.1875 455.25 C206.09243508 451.96480525 206.08789392 449.51336585 206.125 446.0625 C206.13402344 444.97582031 206.14304687 443.88914062 206.15234375 442.76953125 C206.16974609 441.52236328 206.16974609 441.52236328 206.1875 440.25 C205.54941406 440.12882812 204.91132812 440.00765625 204.25390625 439.8828125 C203.42761719 439.71523438 202.60132813 439.54765625 201.75 439.375 C200.92628906 439.21257812 200.10257813 439.05015625 199.25390625 438.8828125 C198.57199219 438.67398437 197.89007812 438.46515625 197.1875 438.25 C195.6327331 435.14046621 195.90105563 432.68733239 196.1875 429.25 C200.20073743 421.04903655 207.9758662 415.14823773 216.4375 412.13671875 C218.55424106 411.32197479 218.55424106 411.32197479 219.1875 408.25 C220.19674376 393.62362186 220.10815314 379.1540824 215.1875 365.25 C214.836875 364.21488281 214.48625 363.17976563 214.125 362.11328125 C209.78744791 350.59165852 202.35269737 338.55802064 193.1875 330.25 C192.5275 330.25 191.8675 330.25 191.1875 330.25 C191.04054688 331.08917969 190.89359375 331.92835938 190.7421875 332.79296875 C186.10614788 357.65173289 178.41589317 383.05220665 166.25732422 405.29150391 C165.09047964 407.42761236 163.95398805 409.57864634 162.81640625 411.73046875 C154.84463911 426.62888552 145.2829668 439.55278161 134.1875 452.25 C133.46433594 453.09691406 132.74117187 453.94382812 131.99609375 454.81640625 C127.72015033 459.76177329 123.23401793 464.10117997 118.1875 468.25 C117.66800781 468.68715332 117.14851563 469.12430664 116.61328125 469.57470703 C84.86335047 496.25 84.86335047 496.25 72.1875 496.25 C72.19535522 497.6097998 72.19535522 497.6097998 72.20336914 498.99707031 C72.2205963 502.41895202 72.23303905 505.84078643 72.24243164 509.26269531 C72.24740456 510.73275488 72.25418527 512.20280965 72.26293945 513.67285156 C72.31457848 522.57906499 72.1306858 531.38171416 71.1875 540.25 C72.22922363 540.22643433 72.22922363 540.22643433 73.29199219 540.20239258 C76.50707509 540.13916866 79.72202652 540.10073609 82.9375 540.0625 C84.57525391 540.02479492 84.57525391 540.02479492 86.24609375 539.98632812 C96.01951833 539.89958175 106.45107496 540.67403871 114.1875 547.25 C116.65046804 549.77778298 117.99222614 551.3604191 118.75 554.8125 C117.93467418 558.34557856 116.18584734 559.34196078 113.1875 561.25 C110.19159193 562.21310597 107.45114545 562.38114049 104.31469727 562.39526367 C103.350121 562.40164352 102.38554474 562.40802338 101.39173889 562.41459656 C100.35625412 562.41570938 99.32076935 562.4168222 98.25390625 562.41796875 C97.18381821 562.42129715 96.11373016 562.42462555 95.01121521 562.42805481 C92.74926178 562.43311488 90.48730089 562.43546342 88.2253418 562.43530273 C84.76663924 562.43748948 81.30825553 562.45565587 77.84960938 562.47460938 C75.65104276 562.47754343 73.45247462 562.47952814 71.25390625 562.48046875 C70.22044571 562.48765427 69.18698517 562.49483978 68.12220764 562.50224304 C67.15447922 562.49916641 66.18675079 562.49608978 65.18969727 562.49291992 C63.91872948 562.49505745 63.91872948 562.49505745 62.62208557 562.49723816 C58.97509999 562.12687779 56.13900815 561.07314624 53.36328125 558.671875 C51.57465908 554.98766986 52.06842814 551.4732777 52.375 547.5 C52.43034912 546.61417236 52.48569824 545.72834473 52.54272461 544.81567383 C52.67042429 542.79740836 52.80547522 540.77959995 52.94628906 538.76220703 C53.22129355 534.75794123 53.46807916 530.75241316 53.7109375 526.74609375 C54.18783164 518.91305455 54.68312994 511.08131787 55.1875 503.25 C54.44628906 503.50394531 53.70507812 503.75789063 52.94140625 504.01953125 C37.3466946 509.115967 22.49901859 510.75110389 6.14990234 510.64111328 C3.32209771 510.6250545 0.49573003 510.64104644 -2.33203125 510.66015625 C-18.61015242 510.68033004 -34.12099548 508.66617193 -49.8125 504.25 C-49.6713088 508.64599495 -49.52366992 513.04175213 -49.375 517.4375 C-49.33568359 518.66404297 -49.29636719 519.89058594 -49.25585938 521.15429688 C-49.01160062 528.27537902 -48.61402359 535.35989386 -48.03735352 542.46166992 C-47.7859499 545.5792385 -47.58262948 548.68562671 -47.5 551.8125 C-47.46261719 552.76253906 -47.42523437 553.71257813 -47.38671875 554.69140625 C-47.94453954 558.04344862 -49.18786801 559.16448161 -51.8125 561.25 C-61.25416785 564.39722262 -72.52396973 563.43229607 -82.375 563.4375 C-83.59896484 563.44974609 -84.82292969 563.46199219 -86.08398438 563.47460938 C-106.00474677 563.50641474 -106.00474677 563.50641474 -111.13500977 559.38354492 C-112.8125 557.25 -112.8125 557.25 -113 553.875 C-111.40994862 549.02115894 -109.16657416 546.83106378 -104.8125 544.25 C-101.53555306 542.94024049 -98.25341494 542.01895045 -94.8125 541.25 C-94.07128906 541.06308594 -93.33007812 540.87617187 -92.56640625 540.68359375 C-88.66250849 540.06893751 -84.82046712 540.10567526 -80.875 540.125 C-80.08931641 540.12113281 -79.30363281 540.11726562 -78.49414062 540.11328125 C-74.15492825 540.12054353 -70.08492458 540.38591413 -65.8125 541.25 C-65.97548584 540.61553955 -66.13847168 539.9810791 -66.30639648 539.32739258 C-66.98469492 535.20295853 -66.93551644 531.18402593 -66.91015625 527.01171875 C-66.90803383 525.69056816 -66.90803383 525.69056816 -66.90586853 524.34272766 C-66.90028937 521.54094997 -66.88774071 518.73925338 -66.875 515.9375 C-66.86998231 514.03320428 -66.86541987 512.12890731 -66.86132812 510.22460938 C-66.85032677 505.56637519 -66.83307649 500.90820133 -66.8125 496.25 C-67.94292725 496.0487854 -67.94292725 496.0487854 -69.09619141 495.84350586 C-72.73489167 495.04845999 -75.88483481 493.47968956 -79.1875 491.8125 C-80.23490356 491.28450806 -80.23490356 491.28450806 -81.3034668 490.74584961 C-93.12014869 484.64000981 -103.7694189 476.94885332 -113.8125 468.25 C-114.62976563 467.55519531 -115.44703125 466.86039063 -116.2890625 466.14453125 C-132.85271301 451.71049295 -146.12877179 434.38510487 -156.8125 415.25 C-157.21178711 414.54568848 -157.61107422 413.84137695 -158.02246094 413.11572266 C-170.7524511 390.51278539 -188.06872155 355.88189696 -186.8125 329.25 C-201.91753296 340.09355718 -211.36890587 360.61147762 -214.35620117 378.50708008 C-214.79965932 382.14467071 -214.92643275 385.61513145 -214.91015625 389.27734375 C-214.90532227 391.20610352 -214.90532227 391.20610352 -214.90039062 393.17382812 C-214.89203802 394.51171945 -214.88357311 395.84961007 -214.875 397.1875 C-214.86997659 398.55273274 -214.86541517 399.91796726 -214.86132812 401.28320312 C-214.84958851 404.60551457 -214.83316679 407.92773408 -214.8125 411.25 C-214.27052979 411.44625977 -213.72855957 411.64251953 -213.17016602 411.84472656 C-212.09786743 412.23869629 -212.09786743 412.23869629 -211.00390625 412.640625 C-210.29693604 412.89875977 -209.58996582 413.15689453 -208.86157227 413.42285156 C-202.45098755 416.01061053 -196.17918183 421.2586653 -192.62890625 427.24609375 C-191.36871696 430.33928564 -191.51319367 432.95763035 -191.8125 436.25 C-192.875 438.1875 -192.875 438.1875 -194.8125 439.25 C-198.5 439.4375 -198.5 439.4375 -201.8125 439.25 C-201.76609375 440.11882812 -201.7196875 440.98765625 -201.671875 441.8828125 C-201.37650901 451.31342675 -201.37650901 451.31342675 -203.5 455.875 C-207.43901162 459.92047139 -210.09370106 461.42461354 -215.75 461.6875 C-221.99533296 461.47438033 -225.04490044 458.97551386 -229.4375 454.6875 C-235.85929925 446.35370874 -236.86347004 436.44196524 -235.8125 426.25 C-234.17864173 419.61614173 -234.17864173 419.61614173 -231.8125 417.25 C-231.74847022 414.56686567 -231.74640573 411.90879459 -231.78515625 409.2265625 C-231.79782372 407.5481793 -231.81018306 405.86979376 -231.82226562 404.19140625 C-231.84688512 401.54761415 -231.87462974 398.90394492 -231.90844727 396.26025391 C-232.29689423 363.88151732 -220.7075053 339.25080291 -199.07421875 315.52734375 C-196.8125 313.25 -196.8125 313.25 -194.69067383 311.89526367 C-192.61842738 310.41742995 -192.61842738 310.41742995 -192.38671875 308.09912109 C-192.44279297 306.88603271 -192.44279297 306.88603271 -192.5 305.6484375 C-192.53609375 304.75479492 -192.5721875 303.86115234 -192.609375 302.94042969 C-192.8494503 299.76058613 -193.15586766 296.59806461 -193.52441406 293.43066406 C-200.47760749 231.74758879 -192.40807672 165.15912481 -164.8125 109.25 C-164.41949707 108.44626953 -164.02649414 107.64253906 -163.62158203 106.81445312 C-153.74655864 86.80170923 -141.03413416 69.55889374 -125.8125 53.25 C-125.01585937 52.38761719 -124.21921875 51.52523437 -123.3984375 50.63671875 C-91.24213345 17.07175485 -45.95465842 0.04427294 0 0 Z " fill="#955932" transform="translate(699.8125,111.75)"/>
<path d="M0 0 C7.86714571 21.24129341 6.51115365 44.32907179 -2.87597656 64.92163086 C-8.00379963 75.48489357 -14.41920048 85.42961092 -20.75 95.30078125 C-35.20727922 117.87009493 -43.45876083 141.66144829 -43.375 168.6875 C-43.3737915 169.41032166 -43.37258301 170.13314331 -43.37133789 170.87786865 C-43.22030527 204.36382744 -33.00492156 235.63783257 -15.08203125 263.91796875 C-14.72496094 264.60503906 -14.36789062 265.29210937 -14 266 C-14.33 266.66 -14.66 267.32 -15 268 C-23.1611624 263.27744671 -30.12208005 258.52560631 -34.5625 250 C-35.036875 249.34 -35.51125 248.68 -36 248 C-39.08461971 247.49957854 -39.08461971 247.49957854 -42 248 C-43.23409585 249.03030341 -43.23409585 249.03030341 -43.28515625 251.22265625 C-42.61907491 257.710106 -36.49210148 263.86906739 -31.875 268.25 C-26.77053739 272.2866325 -18.52864804 277.51012894 -12.02514648 278.21362305 C-9.64601798 278.47204315 -8.10659793 278.83588914 -6 280 C-3.03409954 283.79619452 -1.02240232 287.98491263 1.0625 292.3125 C1.67368673 293.54096305 2.28542667 294.769151 2.89770508 295.99707031 C7.97810513 306.34117725 11.9908497 316.87636915 15 328 C15.53367187 329.87365234 15.53367187 329.87365234 16.078125 331.78515625 C20.4772672 349.84163536 18.86373989 369.22717898 14 387 C13.80696289 387.70608398 13.61392578 388.41216797 13.41503906 389.13964844 C10.40716316 399.61535418 5.5483658 408.95621063 0.40673828 418.52880859 C-7.27661213 432.93780451 -12.36878653 446.79806559 -12.25 463.25 C-12.25773438 464.30574219 -12.26546875 465.36148437 -12.2734375 466.44921875 C-12.25361237 474.54778306 -11.98836041 483.05906058 -8.93066406 490.65722656 C-8 493 -8 493 -8 496 C-33.27685302 495.5669075 -57.19903186 487.39714835 -79 475 C-79.80308594 474.58234375 -80.60617187 474.1646875 -81.43359375 473.734375 C-127.65564637 449.64802098 -155.36546732 399.42992037 -170.48535156 351.59033203 C-175.98070785 333.58622644 -180.26014113 315.06187037 -182.5625 296.375 C-182.68818359 295.40949219 -182.81386719 294.44398438 -182.94335938 293.44921875 C-185.0107055 276.88880215 -185.24084825 260.354236 -185.25 243.6875 C-185.25067474 242.57850342 -185.25134949 241.46950684 -185.25204468 240.3269043 C-185.23598779 223.6889693 -184.77451644 207.44137843 -182 191 C-181.82839355 189.94135742 -181.65678711 188.88271484 -181.47998047 187.79199219 C-174.36396824 144.81611136 -159.55829768 102.88515668 -133 68 C-132.34257813 67.11828125 -131.68515625 66.2365625 -131.0078125 65.328125 C-103.66261645 30.21561646 -63.68730519 6.42249352 -19.47949219 0.26367188 C-12.99352901 -0.42605245 -6.50543256 -0.30694046 0 0 Z " fill="#975C34" transform="translate(697,119)"/>
<path d="M0 0 C0.72782684 -0.00100708 1.45565369 -0.00201416 2.20553589 -0.00305176 C14.40931162 0.00832596 26.20546509 0.78123259 38.1875 3.25 C38.87972656 3.38921875 39.57195312 3.5284375 40.28515625 3.671875 C44.98698221 4.65028965 49.58917069 5.86748873 54.1875 7.25 C54.94321289 7.4763916 55.69892578 7.7027832 56.47753906 7.93603516 C75.71737581 13.85328093 93.31480149 22.8729534 109.1875 35.25 C110.10144531 35.94222656 111.01539063 36.63445312 111.95703125 37.34765625 C166.09255715 79.75249718 188.52752939 150.24899415 196.8112793 215.93725586 C198.24894336 228.59634976 198.38501249 241.21454752 198.375 253.9375 C198.37608765 255.3499147 198.37608765 255.3499147 198.37719727 256.79086304 C198.37601791 270.6927202 197.90581505 284.42235808 196.625 298.26953125 C196.47864953 299.92964199 196.33273982 301.58979172 196.1875 303.25 C196.08566406 304.3946875 195.98382812 305.539375 195.87890625 306.71875 C195.96422423 309.34856611 195.96422423 309.34856611 197.83984375 311.19921875 C198.59394531 311.77285156 199.34804688 312.34648437 200.125 312.9375 C205.62468665 317.48184202 209.87893158 322.58240307 214.1875 328.25 C214.94160156 329.23871094 215.69570313 330.22742188 216.47265625 331.24609375 C226.07822606 344.44345467 231.93381457 358.29407371 235.1875 374.25 C235.36764648 374.96849121 235.54779297 375.68698242 235.73339844 376.42724609 C236.34525898 380.23065015 236.23125844 383.9680267 236.14453125 387.8046875 C236.12214237 389.48826946 236.10068703 391.17186406 236.08007812 392.85546875 C236.0430295 395.49107361 235.9999769 398.12602655 235.94067383 400.76123047 C235.8859142 403.31747678 235.85702125 405.87299894 235.83203125 408.4296875 C235.79635796 409.59877151 235.79635796 409.59877151 235.75996399 410.79147339 C235.73298465 416.4789953 237.1873043 419.44932344 240.1875 424.25 C240.90489158 427.3169287 240.85461738 430.29326376 240.8125 433.4375 C240.80629639 434.27031494 240.80009277 435.10312988 240.79370117 435.96118164 C240.54197473 443.28961209 238.70818539 449.35643836 234.1875 455.25 C228.54741957 460.280342 224.46920353 461.81765226 216.95703125 461.70703125 C212.58188519 460.98503959 209.86362605 458.70876669 207.1875 455.25 C206.09243508 451.96480525 206.08789392 449.51336585 206.125 446.0625 C206.13402344 444.97582031 206.14304687 443.88914062 206.15234375 442.76953125 C206.16974609 441.52236328 206.16974609 441.52236328 206.1875 440.25 C205.54941406 440.12882812 204.91132812 440.00765625 204.25390625 439.8828125 C203.42761719 439.71523438 202.60132813 439.54765625 201.75 439.375 C200.92628906 439.21257812 200.10257813 439.05015625 199.25390625 438.8828125 C198.57199219 438.67398437 197.89007812 438.46515625 197.1875 438.25 C195.6327331 435.14046621 195.90105563 432.68733239 196.1875 429.25 C200.20073743 421.04903655 207.9758662 415.14823773 216.4375 412.13671875 C218.55424106 411.32197479 218.55424106 411.32197479 219.1875 408.25 C220.19674376 393.62362186 220.10815314 379.1540824 215.1875 365.25 C214.836875 364.21488281 214.48625 363.17976563 214.125 362.11328125 C209.78744791 350.59165852 202.35269737 338.55802064 193.1875 330.25 C192.5275 330.25 191.8675 330.25 191.1875 330.25 C191.04054688 331.08917969 190.89359375 331.92835938 190.7421875 332.79296875 C186.10614788 357.65173289 178.41589317 383.05220665 166.25732422 405.29150391 C165.09047964 407.42761236 163.95398805 409.57864634 162.81640625 411.73046875 C154.84463911 426.62888552 145.2829668 439.55278161 134.1875 452.25 C133.46433594 453.09691406 132.74117187 453.94382812 131.99609375 454.81640625 C127.72015033 459.76177329 123.23401793 464.10117997 118.1875 468.25 C117.66800781 468.68715332 117.14851563 469.12430664 116.61328125 469.57470703 C84.86335047 496.25 84.86335047 496.25 72.1875 496.25 C72.19535522 497.6097998 72.19535522 497.6097998 72.20336914 498.99707031 C72.2205963 502.41895202 72.23303905 505.84078643 72.24243164 509.26269531 C72.24740456 510.73275488 72.25418527 512.20280965 72.26293945 513.67285156 C72.31457848 522.57906499 72.1306858 531.38171416 71.1875 540.25 C72.22922363 540.22643433 72.22922363 540.22643433 73.29199219 540.20239258 C76.50707509 540.13916866 79.72202652 540.10073609 82.9375 540.0625 C84.57525391 540.02479492 84.57525391 540.02479492 86.24609375 539.98632812 C96.01951833 539.89958175 106.45107496 540.67403871 114.1875 547.25 C116.65046804 549.77778298 117.99222614 551.3604191 118.75 554.8125 C117.93467418 558.34557856 116.18584734 559.34196078 113.1875 561.25 C110.19159193 562.21310597 107.45114545 562.38114049 104.31469727 562.39526367 C103.350121 562.40164352 102.38554474 562.40802338 101.39173889 562.41459656 C100.35625412 562.41570938 99.32076935 562.4168222 98.25390625 562.41796875 C97.18381821 562.42129715 96.11373016 562.42462555 95.01121521 562.42805481 C92.74926178 562.43311488 90.48730089 562.43546342 88.2253418 562.43530273 C84.76663924 562.43748948 81.30825553 562.45565587 77.84960938 562.47460938 C75.65104276 562.47754343 73.45247462 562.47952814 71.25390625 562.48046875 C70.22044571 562.48765427 69.18698517 562.49483978 68.12220764 562.50224304 C67.15447922 562.49916641 66.18675079 562.49608978 65.18969727 562.49291992 C63.91872948 562.49505745 63.91872948 562.49505745 62.62208557 562.49723816 C58.97509999 562.12687779 56.13900815 561.07314624 53.36328125 558.671875 C51.57465908 554.98766986 52.06842814 551.4732777 52.375 547.5 C52.43034912 546.61417236 52.48569824 545.72834473 52.54272461 544.81567383 C52.67042429 542.79740836 52.80547522 540.77959995 52.94628906 538.76220703 C53.22129355 534.75794123 53.46807916 530.75241316 53.7109375 526.74609375 C54.18783164 518.91305455 54.68312994 511.08131787 55.1875 503.25 C54.44628906 503.50394531 53.70507812 503.75789063 52.94140625 504.01953125 C37.3466946 509.115967 22.49901859 510.75110389 6.14990234 510.64111328 C3.32209771 510.6250545 0.49573003 510.64104644 -2.33203125 510.66015625 C-18.61015242 510.68033004 -34.12099548 508.66617193 -49.8125 504.25 C-49.6713088 508.64599495 -49.52366992 513.04175213 -49.375 517.4375 C-49.33568359 518.66404297 -49.29636719 519.89058594 -49.25585938 521.15429688 C-49.01160062 528.27537902 -48.61402359 535.35989386 -48.03735352 542.46166992 C-47.7859499 545.5792385 -47.58262948 548.68562671 -47.5 551.8125 C-47.46261719 552.76253906 -47.42523437 553.71257813 -47.38671875 554.69140625 C-47.94453954 558.04344862 -49.18786801 559.16448161 -51.8125 561.25 C-61.25416785 564.39722262 -72.52396973 563.43229607 -82.375 563.4375 C-83.59896484 563.44974609 -84.82292969 563.46199219 -86.08398438 563.47460938 C-106.00474677 563.50641474 -106.00474677 563.50641474 -111.13500977 559.38354492 C-112.8125 557.25 -112.8125 557.25 -113 553.875 C-111.40994862 549.02115894 -109.16657416 546.83106378 -104.8125 544.25 C-101.53555306 542.94024049 -98.25341494 542.01895045 -94.8125 541.25 C-94.07128906 541.06308594 -93.33007812 540.87617187 -92.56640625 540.68359375 C-88.66250849 540.06893751 -84.82046712 540.10567526 -80.875 540.125 C-80.08931641 540.12113281 -79.30363281 540.11726562 -78.49414062 540.11328125 C-74.15492825 540.12054353 -70.08492458 540.38591413 -65.8125 541.25 C-65.97548584 540.61553955 -66.13847168 539.9810791 -66.30639648 539.32739258 C-66.98469492 535.20295853 -66.93551644 531.18402593 -66.91015625 527.01171875 C-66.90803383 525.69056816 -66.90803383 525.69056816 -66.90586853 524.34272766 C-66.90028937 521.54094997 -66.88774071 518.73925338 -66.875 515.9375 C-66.86998231 514.03320428 -66.86541987 512.12890731 -66.86132812 510.22460938 C-66.85032677 505.56637519 -66.83307649 500.90820133 -66.8125 496.25 C-67.94292725 496.0487854 -67.94292725 496.0487854 -69.09619141 495.84350586 C-72.73489167 495.04845999 -75.88483481 493.47968956 -79.1875 491.8125 C-80.23490356 491.28450806 -80.23490356 491.28450806 -81.3034668 490.74584961 C-93.12014869 484.64000981 -103.7694189 476.94885332 -113.8125 468.25 C-114.62976563 467.55519531 -115.44703125 466.86039063 -116.2890625 466.14453125 C-132.85271301 451.71049295 -146.12877179 434.38510487 -156.8125 415.25 C-157.21178711 414.54568848 -157.61107422 413.84137695 -158.02246094 413.11572266 C-170.7524511 390.51278539 -188.06872155 355.88189696 -186.8125 329.25 C-201.91753296 340.09355718 -211.36890587 360.61147762 -214.35620117 378.50708008 C-214.79965932 382.14467071 -214.92643275 385.61513145 -214.91015625 389.27734375 C-214.90532227 391.20610352 -214.90532227 391.20610352 -214.90039062 393.17382812 C-214.89203802 394.51171945 -214.88357311 395.84961007 -214.875 397.1875 C-214.86997659 398.55273274 -214.86541517 399.91796726 -214.86132812 401.28320312 C-214.84958851 404.60551457 -214.83316679 407.92773408 -214.8125 411.25 C-214.27052979 411.44625977 -213.72855957 411.64251953 -213.17016602 411.84472656 C-212.09786743 412.23869629 -212.09786743 412.23869629 -211.00390625 412.640625 C-210.29693604 412.89875977 -209.58996582 413.15689453 -208.86157227 413.42285156 C-202.45098755 416.01061053 -196.17918183 421.2586653 -192.62890625 427.24609375 C-191.36871696 430.33928564 -191.51319367 432.95763035 -191.8125 436.25 C-192.875 438.1875 -192.875 438.1875 -194.8125 439.25 C-198.5 439.4375 -198.5 439.4375 -201.8125 439.25 C-201.76609375 440.11882812 -201.7196875 440.98765625 -201.671875 441.8828125 C-201.37650901 451.31342675 -201.37650901 451.31342675 -203.5 455.875 C-207.43901162 459.92047139 -210.09370106 461.42461354 -215.75 461.6875 C-221.99533296 461.47438033 -225.04490044 458.97551386 -229.4375 454.6875 C-235.85929925 446.35370874 -236.86347004 436.44196524 -235.8125 426.25 C-234.17864173 419.61614173 -234.17864173 419.61614173 -231.8125 417.25 C-231.74847022 414.56686567 -231.74640573 411.90879459 -231.78515625 409.2265625 C-231.79782372 407.5481793 -231.81018306 405.86979376 -231.82226562 404.19140625 C-231.84688512 401.54761415 -231.87462974 398.90394492 -231.90844727 396.26025391 C-232.29689423 363.88151732 -220.7075053 339.25080291 -199.07421875 315.52734375 C-196.8125 313.25 -196.8125 313.25 -194.69067383 311.89526367 C-192.61842738 310.41742995 -192.61842738 310.41742995 -192.38671875 308.09912109 C-192.44279297 306.88603271 -192.44279297 306.88603271 -192.5 305.6484375 C-192.53609375 304.75479492 -192.5721875 303.86115234 -192.609375 302.94042969 C-192.8494503 299.76058613 -193.15586766 296.59806461 -193.52441406 293.43066406 C-200.47760749 231.74758879 -192.40807672 165.15912481 -164.8125 109.25 C-164.41949707 108.44626953 -164.02649414 107.64253906 -163.62158203 106.81445312 C-153.74655864 86.80170923 -141.03413416 69.55889374 -125.8125 53.25 C-125.01585937 52.38761719 -124.21921875 51.52523437 -123.3984375 50.63671875 C-91.24213345 17.07175485 -45.95465842 0.04427294 0 0 Z M-100.8125 40.25 C-102.19888672 41.2709375 -102.19888672 41.2709375 -103.61328125 42.3125 C-121.89902237 56.5193277 -137.21627215 74.3548887 -148.74365234 94.39453125 C-149.50687399 95.71944777 -150.27904389 97.03922607 -151.05712891 98.35546875 C-168.48606024 127.93183708 -177.96088554 160.29135309 -184 193.875 C-184.15484863 194.71901367 -184.30969727 195.56302734 -184.46923828 196.43261719 C-187.53090961 214.21629678 -188.15281108 231.92705918 -188.0625 249.9375 C-188.05939819 251.03939667 -188.05629639 252.14129333 -188.05310059 253.27658081 C-188.00116945 269.00215489 -187.87380461 284.63617769 -185.8125 300.25 C-185.68359375 301.24499512 -185.5546875 302.23999023 -185.421875 303.26513672 C-180.51878987 339.72615751 -170.23208624 375.74488046 -152.8125 408.25 C-152.49313477 408.85005859 -152.17376953 409.45011719 -151.84472656 410.06835938 C-130.00736561 450.72797358 -93.76127968 482.71239235 -49.5390625 496.625 C-37.16754968 500.33563832 -23.80495538 503.64308384 -10.8125 503.25 C-11.25414588 500.15847881 -11.78466963 497.33001231 -12.8125 494.375 C-19.20885864 474.38637925 -15.25767309 451.6704341 -6.0625 433.375 C-5.02401551 431.37219071 -3.97387907 429.37585068 -2.92138672 427.38037109 C12.80262104 397.17172034 21.06579834 365.82239855 11.1875 332.25 C10.98914551 331.5374707 10.79079102 330.82494141 10.58642578 330.09082031 C7.03361444 317.490635 1.50044443 305.95590529 -4.65356445 294.42773438 C-5.56499975 292.71507315 -6.42847212 290.97688115 -7.2734375 289.23046875 C-9.4300797 286.45529719 -11.36436742 286.17113663 -14.75 285.375 C-27.72491031 281.73798398 -37.12719986 274.89986973 -44.54296875 263.6171875 C-45.9913199 260.91656966 -46.14817666 259.27108993 -45.8125 256.25 C-44.8125 255.25 -44.8125 255.25 -41.96484375 254.8984375 C-38.8125 255.25 -38.8125 255.25 -36.94140625 257.2265625 C-36.42449219 258.10054687 -35.90757812 258.97453125 -35.375 259.875 C-30.42196617 267.56523673 -25.07156993 271.48270495 -16.8125 275.25 C-18.16478075 271.69457866 -19.74191439 268.40038259 -21.5703125 265.06640625 C-40.81019673 229.43039495 -54.1471118 186.13319889 -43.13671875 145.5234375 C-42.7061321 144.09565057 -42.26435085 142.67120061 -41.8125 141.25 C-41.56580566 140.4652832 -41.31911133 139.68056641 -41.06494141 138.87207031 C-36.04199586 123.34996602 -28.59842484 109.92408128 -19.8125 96.25 C-3.13000976 70.28401288 6.45227984 45.4884407 -0.30126953 14.33178711 C-0.90781186 10.47692668 -0.90781186 10.47692668 -2.8125 7.25 C-37.41066023 4.02942657 -73.67539262 19.92657257 -100.8125 40.25 Z M20.1875 8.25 C20.45304687 9.28898437 20.71859375 10.32796875 20.9921875 11.3984375 C21.91506793 15.02540995 22.81118109 18.65854108 23.70019531 22.29394531 C24.07870733 23.81330319 24.48336234 25.3261586 24.8984375 26.8359375 C32.13797006 55.89898852 19.98953168 83.65902373 6.85644531 108.79785156 C1.91237616 118.29251723 -2.96440497 127.70470664 -6.375 137.875 C-6.60203613 138.54772949 -6.82907227 139.22045898 -7.06298828 139.91357422 C-10.47690061 150.78132776 -11.17613676 161.66708481 -11.125 173 C-11.12251251 173.66152069 -11.12002502 174.32304138 -11.11746216 175.00460815 C-10.93141278 207.03071318 2.1063032 232.6970115 17.72827148 259.75610352 C18.07233536 260.35215897 18.41639923 260.94821442 18.77088928 261.56233215 C19.7187212 263.20220847 20.66862366 264.84088754 21.61865234 266.47949219 C22.88190594 268.71033592 24.07259178 270.94267287 25.1875 273.25 C33.27387416 270.47752886 36.81670242 265.20995041 41.1875 258.25 C41.8475 257.26 42.5075 256.27 43.1875 255.25 C45.75 255 45.75 255 48.1875 255.25 C49.1875 256.25 49.1875 256.25 49.625 258.75 C48.60446762 266.91425904 42.2845186 272.45522069 36.3359375 277.62109375 C34.34774767 279.12850313 32.45640573 280.22847909 30.1875 281.25 C31.4004842 285.13273865 32.8445012 288.80629367 34.54785156 292.49951172 C49.16677904 324.34502388 54.50769644 362.58485438 42.47119141 396.10571289 C37.80321827 408.6113386 32.03021284 420.23339373 25.1875 431.6875 C11.70140551 454.35756382 5.07115306 476.81738672 11.1875 503.25 C36.2993403 503.93156382 60.3113825 496.09142521 82.1875 484.25 C83.156875 483.75886719 84.12625 483.26773437 85.125 482.76171875 C130.4997316 459.34888486 160.20299665 412.00623202 175.51318359 364.74755859 C176.41328788 361.91768181 177.30101926 359.08416575 178.1875 356.25 C178.58710937 355.0228125 178.98671875 353.795625 179.3984375 352.53125 C185.30489536 333.44157819 188.13418235 313.0827374 190.1875 293.25 C190.28248779 292.3331543 190.37747559 291.41630859 190.4753418 290.47167969 C193.22734251 259.90933452 192.07951504 228.52407206 187.1875 198.25 C186.97851074 196.95368652 186.76952148 195.65737305 186.55419922 194.32177734 C178.08716303 144.0206058 158.5550721 94.6731233 123.1875 57.25 C122.38183594 56.37988281 121.57617188 55.50976562 120.74609375 54.61328125 C95.87170167 28.6267703 58.41509282 9.67295284 22.1875 8.2578125 C21.5275 8.25523438 20.8675 8.25265625 20.1875 8.25 Z " fill="#0A0504" transform="translate(699.8125,111.75)"/>
<path d="M0 0 C11.97633285 11.51164269 19.43557808 26.41676923 27 41 C27.40605469 41.76344727 27.81210937 42.52689453 28.23046875 43.31347656 C39.69163366 64.97429591 47.38302554 89.98528836 52 114 C52.1757959 114.91410645 52.3515918 115.82821289 52.53271484 116.77001953 C53.85435433 123.82392765 54.95642795 130.90034367 56 138 C56.22864746 139.4538208 56.22864746 139.4538208 56.46191406 140.93701172 C62.52520775 180.28294235 60.30945595 221.80595565 52.45117188 260.70751953 C52.05222557 262.73463307 51.7020723 264.77121651 51.359375 266.80859375 C49.19980018 279.22614894 45.04388865 291.09063678 41 303 C40.73815918 303.77553223 40.47631836 304.55106445 40.20654297 305.35009766 C30.75935294 332.95147552 15.94414998 358.23723105 -3.859375 379.66796875 C-5.25293839 381.18613908 -6.61946369 382.72972823 -7.953125 384.30078125 C-13.07057014 390.32314047 -18.72850313 395.20510394 -25 400 C-26.54107422 401.18916016 -26.54107422 401.18916016 -28.11328125 402.40234375 C-42.41280079 413.16544595 -58.06450598 421.30537058 -75 427 C-76.40958984 427.54720703 -76.40958984 427.54720703 -77.84765625 428.10546875 C-84.59451786 430.63918225 -91.49058018 431.97792201 -98.5625 433.25 C-99.99928101 433.51321045 -99.99928101 433.51321045 -101.46508789 433.78173828 C-108.02856228 434.8956013 -114.34859955 435.20418479 -121 435 C-122.71979056 427.8668439 -123.25870025 421.19766008 -123.125 413.875 C-123.11597656 412.91851563 -123.10695313 411.96203125 -123.09765625 410.9765625 C-123.07439827 408.65076475 -123.04172213 406.32552706 -123 404 C-122.67 405.32 -122.34 406.64 -122 408 C-73.10367937 399.32828166 -31.75260394 378.22381245 -2.42822266 337.06103516 C1.38617514 331.55656573 4.75884655 325.85626839 8 320 C8.43022461 319.23768066 8.86044922 318.47536133 9.30371094 317.68994141 C17.01140681 303.95667633 22.88307755 289.88169228 28 275 C28.41894531 273.78957031 28.83789062 272.57914062 29.26953125 271.33203125 C35.10552698 253.35902448 38.45464989 234.6852532 41 216 C41.12004395 215.13455566 41.24008789 214.26911133 41.36376953 213.37744141 C48.15565321 161.90690711 42.02109049 104.88441197 25 56 C24.70367676 55.13068848 24.40735352 54.26137695 24.10205078 53.36572266 C15.30913944 27.34648573 15.30913944 27.34648573 1.34887695 3.86206055 C0 2 0 2 0 0 Z " fill="#703B1A" transform="translate(832,180)"/>
<path d="M0 0 C2.97 0 5.94 0 9 0 C9.98375758 3.20698956 10.96213817 6.41545696 11.9375 9.625 C12.35418945 10.98044922 12.35418945 10.98044922 12.77929688 12.36328125 C13.18051758 13.68779297 13.18051758 13.68779297 13.58984375 15.0390625 C13.95903931 16.24876709 13.95903931 16.24876709 14.33569336 17.48291016 C22.39743122 48.02922304 10.25195602 75.30538718 -3.625 101.6875 C-21.49718822 135.71608536 -26.42551169 171.13448833 -14.87646484 208.30541992 C-8.78331282 226.60497936 1.18824184 243.61880875 11.39331055 259.89648438 C11.86808838 260.66025391 12.34286621 261.42402344 12.83203125 262.2109375 C13.25202393 262.87399902 13.6720166 263.53706055 14.10473633 264.22021484 C15 266 15 266 15 269 C6.59446416 272.25375581 -3.26838147 273.91053951 -12 271 C-18.07949071 262.48871301 -22.50066776 252.42094579 -27 243 C-27.51312744 241.92806396 -27.51312744 241.92806396 -28.03662109 240.83447266 C-39.50328713 216.63306223 -46.67036627 190.97552361 -45 164 C-44.95601074 163.28682617 -44.91202148 162.57365234 -44.86669922 161.83886719 C-42.98503935 135.47142759 -32.7106682 114.11987804 -19 92 C-6.54283285 71.83337934 3.14574841 53.06136856 3.25 28.875 C3.270625 27.70195312 3.29125 26.52890625 3.3125 25.3203125 C3.34251898 18.5660426 2.74052742 12.74581098 0.64746094 6.30908203 C0 4 0 4 0 0 Z " fill="#4D2710" transform="translate(704,119)"/>
<path d="M0 0 C16.64849872 36.06486199 24.62976179 73.34340586 10.80615234 111.86425781 C7.29354413 121.17022288 3.09337999 129.76099924 -1.875 138.375 C-3.12182718 140.57436814 -4.3666378 142.77488076 -5.609375 144.9765625 C-6.19783203 146.01844727 -6.78628906 147.06033203 -7.39257812 148.13378906 C-12.8075744 157.78932617 -17.21291629 167.24381763 -20 178 C-20.33837891 179.2065625 -20.33837891 179.2065625 -20.68359375 180.4375 C-23.75007336 192.95719608 -22.22333553 206.47388645 -20 219 C-22.64 219 -25.28 219 -28 219 C-28.79874865 216.85679273 -29.58861858 214.71027584 -30.375 212.5625 C-30.81585937 211.36753906 -31.25671875 210.17257812 -31.7109375 208.94140625 C-34.26603413 201.45658786 -35.3905355 194.27790637 -35.375 186.375 C-35.37338867 185.50762207 -35.37177734 184.64024414 -35.37011719 183.74658203 C-35.21871919 175.68241224 -33.64628458 168.64276595 -31 161 C-30.73445312 160.18273437 -30.46890625 159.36546875 -30.1953125 158.5234375 C-27.76143573 151.77812187 -24.15569981 145.55552255 -20.78808594 139.24462891 C-10.30868938 119.49201355 -4.54263522 100.20130373 -4.5 77.75 C-4.49831818 77.05401703 -4.49663635 76.35803406 -4.49490356 75.64096069 C-4.55982653 49.62317532 -13.9973437 26.73444311 -26 4 C-24.92621094 3.87882812 -23.85242188 3.75765625 -22.74609375 3.6328125 C-21.30986025 3.46384385 -19.87366428 3.29455596 -18.4375 3.125 C-17.73302734 3.04636719 -17.02855469 2.96773438 -16.30273438 2.88671875 C-10.80560103 2.22807605 -5.46858733 0 0 0 Z " fill="#4C2610" transform="translate(725,397)"/>
<path d="M0 0 C9.05956129 16.39699832 4.70200217 41.81819238 0 59 C-0.19303711 59.70608398 -0.38607422 60.41216797 -0.58496094 61.13964844 C-3.59283684 71.61535418 -8.4516342 80.95621063 -13.59326172 90.52880859 C-21.27661213 104.93780451 -26.36878653 118.79806559 -26.25 135.25 C-26.25773438 136.30574219 -26.26546875 137.36148438 -26.2734375 138.44921875 C-26.25361237 146.54778306 -25.98836041 155.05906058 -22.93066406 162.65722656 C-22 165 -22 165 -22 168 C-47.27685302 167.5669075 -71.19903186 159.39714835 -93 147 C-93.80308594 146.58234375 -94.60617187 146.1646875 -95.43359375 145.734375 C-121.39299269 132.20690839 -145.74291621 107.05702675 -159 81 C-155.71268312 82.09577229 -155.11996244 82.77804601 -153 85.375 C-140.93114806 99.50991845 -127.1437431 110.79072837 -111 120 C-110.39414062 120.35803711 -109.78828125 120.71607422 -109.1640625 121.08496094 C-86.41902371 134.46507814 -60.15765845 140.82805137 -34 143 C-34.165 141.9275 -34.33 140.855 -34.5 139.75 C-35.19204676 134.16419399 -35.15733361 128.61905738 -35 123 C-34.97486328 121.89011719 -34.97486328 121.89011719 -34.94921875 120.7578125 C-33.81803733 103.6284939 -23.58317741 88.08193283 -15.49609375 73.4765625 C-5.24003614 54.79992133 -0.80058598 37.65873203 -0.375 16.375 C-0.33673668 14.78253268 -0.29768039 13.19008421 -0.2578125 11.59765625 C-0.16273465 7.73192732 -0.07837985 3.86610206 0 0 Z " fill="#6D3819" transform="translate(711,447)"/>
<path d="M0 0 C1.16789063 0.00966797 1.16789063 0.00966797 2.359375 0.01953125 C4.25 0.1875 4.25 0.1875 5.25 1.1875 C5.63374779 4.70026819 5.71307407 6.53651181 3.6328125 9.4609375 C2.88773438 10.15445313 2.14265625 10.84796875 1.375 11.5625 C0.14136719 12.71878906 0.14136719 12.71878906 -1.1171875 13.8984375 C-4.41482903 16.76552643 -7.82179631 19.46508411 -11.26953125 22.1484375 C-14.6377889 24.91730442 -17.63312445 27.98417632 -20.66796875 31.109375 C-22.46061885 32.89866177 -24.27562868 34.48300294 -26.25 36.0625 C-31.11676256 40.13308712 -34.81866171 45.24354427 -38.75 50.1875 C-40.24921965 51.97981969 -41.74921368 53.77149194 -43.25 55.5625 C-47.35436447 60.56379727 -51.00872862 65.776901 -54.609375 71.14453125 C-60.74826283 79.87116195 -60.74826283 79.87116195 -65.3125 81.3125 C-68.75 81.1875 -68.75 81.1875 -71.1875 79.875 C-73.72676343 75.50746689 -73.76057875 72.1101965 -72.75 67.1875 C-67.46703655 52.46422992 -57.33192804 40.42003483 -46.75 29.1875 C-46.15058594 28.52363281 -45.55117188 27.85976562 -44.93359375 27.17578125 C-35.0187816 16.61854067 -15.10123978 -0.27871416 0 0 Z " fill="#DDA778" transform="translate(636.75,143.8125)"/>
<path d="M0 0 C5.63011308 3.30564731 10.16097767 8.06686934 12.75 14.0625 C14.74647534 22.04840137 13.38949413 28.12914531 9.5625 35.3125 C7.0625 38.25 7.0625 38.25 4.5625 40.3125 C3.9025 40.869375 3.2425 41.42625 2.5625 42 C-3.41624797 45.92355336 -9.48358465 46.15298595 -16.4375 45.3125 C-23.41574709 43.03237367 -27.77726321 38.54110633 -31.4375 32.3125 C-34.28871806 26.48046307 -34.53895665 19.3139944 -32.8203125 13.0703125 C-30.10642783 6.89802614 -25.07342271 2.09481505 -19.046875 -0.859375 C-12.92862159 -2.80109614 -5.85056618 -2.7473191 0 0 Z " fill="#050202" transform="translate(634.4375,309.6875)"/>
<path d="M0 0 C6.88942299 3.6260121 10.29595523 9.66520943 12.70703125 16.8984375 C13.29755801 23.6304426 12.17464272 29.03873042 8.70703125 34.8984375 C2.92220247 41.59901137 -2.33527318 44.32952161 -11.10546875 45.3359375 C-17.1755369 45.14735286 -22.66265022 42.21995553 -27.15625 38.25390625 C-32.94409857 31.89158139 -34.96247101 25.44750986 -34.6953125 16.8984375 C-33.90685 11.01941612 -31.62870668 6.83738632 -27.0625 3.046875 C-18.68102482 -2.72308018 -9.54666469 -4.23864135 0 0 Z " fill="#050202" transform="translate(790.29296875,310.1015625)"/>
<path d="M0 0 C2.9375 0.6875 2.9375 0.6875 5.3125 2.6875 C7.38763615 6.51852058 7.56223432 9.46533029 6.9375 13.6875 C5.53582855 18.09060119 3.73499841 22.30834213 1.9375 26.5625 C0.91126638 29.06637566 -0.09837301 31.57665447 -1.1015625 34.08984375 C-1.35491364 34.72436966 -1.60826477 35.35889557 -1.86929321 36.01264954 C-8.05387921 51.67714953 -12.38486318 68.00766078 -16.0546875 84.421875 C-16.84850838 87.92701807 -17.84965246 91.30026812 -19.0625 94.6875 C-21.4375 94.8125 -21.4375 94.8125 -24.0625 94.6875 C-26.89904355 91.85095645 -26.37758668 89.69409277 -26.44287109 85.80859375 C-26.39778561 61.70835158 -20.75749327 38.09491773 -12 15.6875 C-11.68385742 14.86878418 -11.36771484 14.05006836 -11.04199219 13.20654297 C-6.21886809 1.39607243 -6.21886809 1.39607243 0 0 Z " fill="#DCA678" transform="translate(556.0625,231.3125)"/>
<path d="M0 0 C1.26360352 -0.02416992 1.26360352 -0.02416992 2.55273438 -0.04882812 C9.8124168 -0.0544168 16.61716457 1.28130528 22.625 5.5625 C25.0625 8.3125 25.0625 8.3125 25.8125 11.8125 C25.01502179 15.534065 24.06033207 17.03096111 20.97265625 19.25 C10.65515176 24.98898001 -2.45692846 25.91701788 -13.796875 23.08203125 C-18.41876807 21.42051129 -22.4747364 18.7752636 -25.9375 15.3125 C-26.5625 12.0625 -26.5625 12.0625 -25.9375 8.3125 C-19.16351611 0.57331115 -9.62560761 -0.03665502 0 0 Z " fill="#F9A0AB" transform="translate(806.9375,361.6875)"/>
<path d="M0 0 C0.8876001 0.00418945 1.7752002 0.00837891 2.68969727 0.01269531 C11.32825003 0.16121364 19.97979211 0.76870184 26.3125 7.3125 C27.775458 10.238416 27.75773109 12.06867347 27.3125 15.3125 C22.5479858 20.56568232 16.57985351 22.84063101 9.57250977 23.61547852 C6.64650476 23.74940038 3.74133824 23.77116769 0.8125 23.75 C-0.16847656 23.76998047 -1.14945313 23.78996094 -2.16015625 23.81054688 C-10.33334639 23.80510534 -16.24809884 21.85765686 -22.8125 17 C-24.6875 14.3125 -24.6875 14.3125 -25 10.8125 C-23.40948072 6.57111525 -21.8096802 5.52958505 -17.98828125 3.35546875 C-11.84279991 0.56965633 -6.6661827 -0.0424717 0 0 Z " fill="#FBA3AF" transform="translate(594.6875,361.6875)"/>
<path d="M0 0 C5.61 0 11.22 0 17 0 C24.70856735 21.37375491 23.56571715 44.20937578 14.12402344 64.92163086 C8.99620037 75.48489357 2.58079952 85.42961092 -3.75 95.30078125 C-18.31831738 118.04343702 -26.00137679 141.54365015 -26.625 168.6875 C-26.66329144 170.08270367 -26.7023491 171.47788652 -26.7421875 172.87304688 C-26.83562763 176.24857169 -26.92139416 179.6241027 -27 183 C-27.66 183 -28.32 183 -29 183 C-29.02465504 178.60343827 -29.04283842 174.2069128 -29.05493164 169.81030273 C-29.05997121 168.31355082 -29.06680287 166.81680384 -29.07543945 165.32006836 C-29.08752159 163.17300193 -29.09323191 161.02600038 -29.09765625 158.87890625 C-29.10289307 157.5854126 -29.10812988 156.29191895 -29.11352539 154.95922852 C-29 152 -29 152 -28 151 C-27.64830582 149.15286669 -27.34404368 147.29661899 -27.0625 145.4375 C-25.89207812 138.1201958 -24.07319763 131.10810617 -22 124 C-21.34 124 -20.68 124 -20 124 C-19.87625 123.113125 -19.7525 122.22625 -19.625 121.3125 C-18.60386806 115.90050073 -16.18743135 111.16425443 -13.875 106.1875 C-13.33617187 105.02605469 -12.79734375 103.86460937 -12.2421875 102.66796875 C-11.83226562 101.78753906 -11.42234375 100.90710938 -11 100 C-10.34 100 -9.68 100 -9 100 C-8.773125 98.96875 -8.54625 97.9375 -8.3125 96.875 C-7.54784084 93.39927653 -5.66456177 91.33428162 -3.3659668 88.68164062 C-0.99710859 85.76534119 0.85027222 82.54587506 2.75 79.3125 C3.14832031 78.64927734 3.54664063 77.98605469 3.95703125 77.30273438 C5.58506535 74.5626702 6.98909436 72.03271693 8 69 C8.66 69 9.32 69 10 69 C10.12632812 68.26910156 10.25265625 67.53820312 10.3828125 66.78515625 C10.97089593 64.13133671 11.79045415 61.92186665 12.875 59.4375 C19.65964987 42.68558268 19.60378699 26.53097681 17 9 C16.80904745 7.6680901 16.61889747 6.33606481 16.4296875 5.00390625 C16.28789063 4.01261719 16.14609375 3.02132812 16 2 C14.576875 2.2784375 14.576875 2.2784375 13.125 2.5625 C8.35520074 3.26768593 3.75075712 2.62132638 -1 2 C-0.67 1.34 -0.34 0.68 0 0 Z " fill="#885E44" transform="translate(680,119)"/>
<path d="M0 0 C8.7469766 16.83679837 4.79848577 41.46562713 0 59 C-0.19303711 59.70608398 -0.38607422 60.41216797 -0.58496094 61.13964844 C-3.59283684 71.61535418 -8.4516342 80.95621063 -13.59326172 90.52880859 C-21.27661213 104.93780451 -26.36878653 118.79806559 -26.25 135.25 C-26.25773438 136.30574219 -26.26546875 137.36148438 -26.2734375 138.44921875 C-26.25361237 146.54778306 -25.98836041 155.05906058 -22.93066406 162.65722656 C-22 165 -22 165 -22 168 C-25.63 167.67 -29.26 167.34 -33 167 C-33 166.67 -33 166.34 -33 166 C-30.69 165.67 -28.38 165.34 -26 165 C-26.60479621 160.38539362 -26.60479621 160.38539362 -27.51171875 155.82421875 C-31.75561595 136.95242054 -29.84262891 114.92770837 -20.11328125 97.97265625 C-18.8425672 95.72104013 -17.94921568 93.40233599 -17 91 C-16 89.33333333 -15 87.66666667 -14 86 C-13.67 85.175 -13.34 84.35 -13 83.5 C-12 81 -12 81 -10.59375 78.73046875 C-2.44360781 64.76735749 0.18713727 49.3766617 0.09765625 33.49609375 C0.0962413 32.5322023 0.09482635 31.56831085 0.09336853 30.57521057 C0.08781942 27.52927402 0.07527669 24.48341393 0.0625 21.4375 C0.05747841 19.35872503 0.05291666 17.27994889 0.04882812 15.20117188 C0.03786671 10.13408561 0.0206378 5.06705572 0 0 Z " fill="#5B3824" transform="translate(711,447)"/>
<path d="M0 0 C-1.32 0.33 -2.64 0.66 -4 1 C-4 1.66 -4 2.32 -4 3 C-4.845625 3.30292969 -5.69125 3.60585937 -6.5625 3.91796875 C-13.23536535 6.38237925 -19.14083144 8.98910994 -25 13 C-26.30929614 13.81765281 -27.62187612 14.63006809 -28.9375 15.4375 C-36.04141714 19.89485978 -42.73522309 24.40168872 -49 30 C-49.66 29.67 -50.32 29.34 -51 29 C-51.37705078 29.88365234 -51.37705078 29.88365234 -51.76171875 30.78515625 C-53.15455401 33.27644202 -54.6208572 34.62300414 -56.8125 36.4375 C-64.78215812 43.20527072 -72.45473201 50.49625784 -77 60 C-78.40496068 61.76324578 -79.87689871 63.4340658 -81.40234375 65.09375 C-90.93458173 76.4671782 -101.21123701 93.48383497 -104.47070312 108.11254883 C-105 110 -105 110 -107 112 C-107.6425235 114.06874034 -107.6425235 114.06874034 -108 116 C-108.66 116 -109.32 116 -110 116 C-110.12375 116.804375 -110.2475 117.60875 -110.375 118.4375 C-110.684375 119.7059375 -110.684375 119.7059375 -111 121 C-111.99 121.495 -111.99 121.495 -113 122 C-111.05701784 114.89763826 -108.57099477 108.25098152 -105.5 101.5625 C-105.06494141 100.61310547 -104.62988281 99.66371094 -104.18164062 98.68554688 C-97.253595 83.85102979 -88.91261014 70.02052421 -79 57 C-78.34257813 56.11828125 -77.68515625 55.2365625 -77.0078125 54.328125 C-64.85139331 38.71871515 -22.31709408 -7.43903136 0 0 Z " fill="#8A5E43" transform="translate(643,130)"/>
<path d="M0 0 C0.99 0 1.98 0 3 0 C2.690625 1.2375 2.38125 2.475 2.0625 3.75 C0.96046655 9.2286806 0.60348103 14.68138208 0.3125 20.25 C0.26424072 21.11334961 0.21598145 21.97669922 0.16625977 22.86621094 C-0.04256743 27.43127061 0.15176723 31.48924279 1 36 C0.94733724 37.54301886 0.86329301 39.08524507 0.75 40.625 C0.63283743 52.86011938 4.95410312 65.78772268 10.08203125 76.78515625 C11 79 11 79 11 82 C11.66 82 12.32 82 13 82 C13.33 83.03125 13.66 84.0625 14 85.125 C17.56446082 94.65275309 23.61251041 103.5052029 28.96875 112.109375 C30 114 30 114 30 116 C30.66 116 31.32 116 32 116 C32.99 118.31 33.98 120.62 35 123 C35.99 122.34 36.98 121.68 38 121 C38.99 121 39.98 121 41 121 C41.495 119.515 41.495 119.515 42 118 C42.66 118 43.32 118 44 118 C44.309375 117.21625 44.61875 116.4325 44.9375 115.625 C46 113 46 113 47 111 C47.66 111 48.32 111 49 111 C49.495 109.02 49.495 109.02 50 107 C52.6875 106.1875 52.6875 106.1875 56 106 C58.875 108.4375 58.875 108.4375 61 111 C60.1646875 110.505 60.1646875 110.505 59.3125 110 C56.57623606 108.81675073 54.95651019 108.6230563 52 109 C50.26677888 110.78422514 50.26677888 110.78422514 49 113.1875 C45.52254483 118.86171073 41.38727033 123.06874868 36 127 C35.34 127 34.68 127 34 127 C33.72961914 126.50411377 33.45923828 126.00822754 33.18066406 125.49731445 C31.87255483 123.10121579 30.56154641 120.70671902 29.25 118.3125 C28.75991455 117.41635986 28.2698291 116.52021973 27.76489258 115.59692383 C25.1692266 110.87114348 22.53632208 106.17440285 19.80859375 101.5234375 C6.04621462 78.05209989 -2.17402827 54.62454797 -2.1875 27.25 C-2.19974609 25.95578125 -2.21199219 24.6615625 -2.22460938 23.328125 C-2.23668007 15.34537382 -1.61344009 7.82129939 0 0 Z " fill="#875D44" transform="translate(691,258)"/>
<path d="M0 0 C1.03340368 3.10021105 1.39248611 4.77600695 1 8 C-0.828125 11.0078125 -0.828125 11.0078125 -3.25 14.125 C-4.03890625 15.15882813 -4.8278125 16.19265625 -5.640625 17.2578125 C-10.41928658 22.81181983 -10.41928658 22.81181983 -14.625 23.3125 C-17 23 -17 23 -19 21 C-19.83166099 16.42586457 -19.69082709 14.20158077 -17.3515625 10.1328125 C-8.79414307 -1.86029949 -8.79414307 -1.86029949 0 0 Z " fill="#D59E71" transform="translate(616,198)"/>
<path d="M0 0 C0.33 0 0.66 0 1 0 C1.34211727 7.93712072 0.07620088 15.23342939 -1.5 23 C-1.63116211 23.65284973 -1.76232422 24.30569946 -1.89746094 24.97833252 C-4.60335145 38.32406678 -8.47467036 51.15681946 -13 64 C-13.38623535 65.13066895 -13.38623535 65.13066895 -13.78027344 66.28417969 C-20.29152132 85.33560867 -33.81963325 124.40981662 -53 134 C-53 133.01 -53 132.02 -53 131 C-52.34 131 -51.68 131 -51 131 C-50.34 129.35 -49.68 127.7 -49 126 C-48.34 126 -47.68 126 -47 126 C-46.855625 125.38125 -46.71125 124.7625 -46.5625 124.125 C-46 122 -46 122 -45 120 C-44.34 120 -43.68 120 -43 120 C-43 119.01 -43 118.02 -43 117 C-42.34 117 -41.68 117 -41 117 C-40.9071875 116.443125 -40.814375 115.88625 -40.71875 115.3125 C-39.53077563 111.4903216 -36.96116715 108.61992962 -34.59375 105.4375 C-33.10612894 103.16231484 -32.60142273 101.59074409 -32 99 C-31.01 98.505 -31.01 98.505 -30 98 C-28.93941893 96.060045 -28.93941893 96.060045 -28 93.75 C-27.65453125 92.94175781 -27.3090625 92.13351562 -26.953125 91.30078125 C-25.94816721 88.87487904 -24.94793648 86.4488359 -24 84 C-23.34 84 -22.68 84 -22 84 C-21.7525 82.72125 -21.505 81.4425 -21.25 80.125 C-20.50244732 76.74794382 -19.53784344 73.68178089 -18.1875 70.5 C-15.95423358 65.17515954 -14.37968798 59.72254092 -12.7902832 54.1809082 C-11.72987088 50.48446123 -10.64113376 46.82017696 -9.375 43.1875 C-5.85514107 32.7262433 -4.08967226 22.06431189 -2.35766602 11.18920898 C-2.19580811 10.17673096 -2.0339502 9.16425293 -1.8671875 8.12109375 C-1.72394043 7.2077124 -1.58069336 6.29433105 -1.43310547 5.35327148 C-1 3 -1 3 0 0 Z " fill="#643E27" transform="translate(886,419)"/>
<path d="M0 0 C1.65287149 3.30574298 1.76826713 6.45605807 1 10 C-1.9186355 14.58642721 -5.15551431 17.61916302 -10 20 C-10.33 20.66 -10.66 21.32 -11 22 C-11.33 20.35 -11.66 18.7 -12 17 C-12.99 16.67 -13.98 16.34 -15 16 C-15.91643096 6.30959115 -15.91643096 6.30959115 -13.734375 3.19140625 C-8.82952539 -0.82057025 -6.11992346 -1.22398469 0 0 Z " fill="#AE7247" transform="translate(628,182)"/>
<path d="M0 0 C0.99 0.33 1.98 0.66 3 1 C-17.10318253 18.29675534 -42.9611123 28.6503997 -68.8125 33.3125 C-69.75504639 33.48426758 -70.69759277 33.65603516 -71.66870117 33.83300781 C-78.1588938 34.92180994 -84.42538556 35.19376972 -91 35 C-92.71979056 27.8668439 -93.25870025 21.19766008 -93.125 13.875 C-93.11597656 12.91851563 -93.10695313 11.96203125 -93.09765625 10.9765625 C-93.07439827 8.65076475 -93.04172213 6.32552706 -93 4 C-91.23537317 7.08809695 -91 8.23312136 -91 12 C-90.75334503 15.02771667 -90.40058122 18.04374638 -90.0625 21.0625 C-89.93198242 22.28549805 -89.93198242 22.28549805 -89.79882812 23.53320312 C-89.66831055 24.70979492 -89.66831055 24.70979492 -89.53515625 25.91015625 C-89.456604 26.62308838 -89.37805176 27.33602051 -89.29711914 28.07055664 C-89.02267379 30.21223843 -89.02267379 30.21223843 -88 33 C-79.31383419 32.10061498 -70.78207339 30.8851353 -62.25 29 C-61.4883252 28.8340332 -60.72665039 28.66806641 -59.94189453 28.49707031 C-56.34897525 27.67643046 -53.27267865 26.64997549 -50 25 C-47.92830754 24.56526661 -45.84272249 24.19345777 -43.75 23.875 C-42.67234375 23.70742188 -41.5946875 23.53984375 -40.484375 23.3671875 C-39.66453125 23.24601563 -38.8446875 23.12484375 -38 23 C-38 22.34 -38 21.68 -38 21 C-37.26394531 20.74605469 -36.52789063 20.49210938 -35.76953125 20.23046875 C-34.79371094 19.88628906 -33.81789063 19.54210937 -32.8125 19.1875 C-31.84957031 18.85105469 -30.88664063 18.51460937 -29.89453125 18.16796875 C-27.03348035 17.01350961 -24.61133056 15.6336286 -22 14 C-20.21330791 13.01178535 -18.42148095 12.03280562 -16.625 11.0625 C-15.66722656 10.54042969 -14.70945312 10.01835938 -13.72265625 9.48046875 C-12.10838256 8.60269295 -10.49199672 7.72875421 -8.87109375 6.86328125 C-5.38504709 4.95837886 -2.65012168 2.96813629 0 0 Z " fill="#623D28" transform="translate(802,580)"/>
<path d="M0 0 C0.671875 1.72265625 0.671875 1.72265625 1 4 C-0.109375 6.18359375 -0.109375 6.18359375 -1.75 8.4375 C-3.44987324 10.81654634 -5.01677858 13.03203183 -6.375 15.625 C-8.95520114 19.3960632 -12.4920282 22.10863132 -16 25 C-15.30395572 29.07683077 -14.0932037 32.80114273 -12.6875 36.6875 C-12.46457275 37.30834473 -12.24164551 37.92918945 -12.01196289 38.56884766 C-10.75087017 42.0509223 -9.3938835 45.47099253 -7.9375 48.875 C1.28840364 71.69697217 2.7318814 99.00260148 -2 123 C-2.66 123 -3.32 123 -4 123 C-3.76216797 121.24236328 -3.76216797 121.24236328 -3.51953125 119.44921875 C0.03409192 87.10051757 -5.33257914 56.88148556 -19.71484375 27.7734375 C-21 25 -21 25 -21 23 C-19.3125 21.80859375 -19.3125 21.80859375 -17 20.4375 C-9.015117 15.26933163 -3.78005589 8.66262808 0 0 Z " fill="#845A41" transform="translate(751,370)"/>
<path d="M0 0 C1.875 1 1.875 1 3 3 C3 9.60835905 1.2038812 12.97584929 -3 18 C-5.76250036 19.38125018 -7.94731099 19.19079306 -11 19 C-13 17 -13 17 -13.5 13.375 C-13.40387005 8.11669181 -10.53894111 4.67646473 -7 1 C-4.45132831 -0.27433584 -2.82594567 -0.27570202 0 0 Z " fill="#DDA779" transform="translate(586,234)"/>
<path d="M0 0 C1.90625 0.4140625 1.90625 0.4140625 4.40625 1.9765625 C6.51631839 5.40542364 6.53116523 7.45626601 5.90625 11.4140625 C3.46026113 14.79528241 2.01328441 16.18343033 -2.09375 17.0390625 C-6.1680856 16.19024258 -7.63780875 14.73680654 -10.09375 11.4140625 C-10.80335213 7.62951782 -10.37176176 5.94691837 -8.59375 2.5390625 C-5.55206021 -0.04637382 -3.89367767 -0.27604431 0 0 Z " fill="#F5F5F5" transform="translate(618.09375,316.5859375)"/>
<path d="M0 0 C0.33 0 0.66 0 1 0 C1.10546143 0.98282959 1.21092285 1.96565918 1.31958008 2.97827148 C1.71775632 6.66398624 2.12909249 10.34813825 2.54418945 14.03198242 C2.7212224 15.61915773 2.89480006 17.20672274 3.06469727 18.79467773 C4.2254616 30.19575118 4.2254616 30.19575118 7.35205078 41.18188477 C8.37032229 44.03910703 8.59831723 47.00256894 9 50 C9.71776269 52.86276091 10.57198113 55.6788627 11.4375 58.5 C11.8739264 59.94784781 12.31012683 61.39576376 12.74609375 62.84375 C12.96023926 63.54910889 13.17438477 64.25446777 13.39501953 64.98120117 C13.93413749 66.7802191 14.44741008 68.58693618 14.95703125 70.39453125 C18.36012215 82.15877432 21.84575857 93.94347196 27.93359375 104.625 C29.12412383 107.27643697 29.21042358 109.12592185 29 112 C17.52927332 94.79390998 12.12508119 72.72672759 7 53 C6.74943848 52.04029297 6.49887695 51.08058594 6.24072266 50.09179688 C1.91441337 33.32551769 -0.41516101 17.34450452 0 0 Z " fill="#8C6045" transform="translate(515,401)"/>
<path d="M0 0 C2.562964 2.23225897 2.93752331 3.58051369 3.4375 6.9375 C2.87499856 10.87501007 2.03727005 12.41832046 -1 15 C-3.82462492 15.71773256 -6.17452478 15.71070236 -9 15 C-11.5625 12.9375 -11.5625 12.9375 -13 10 C-13.07481382 5.73561227 -12.64839572 3.76281849 -9.875 0.5 C-6.06467129 -1.48799759 -4.08035596 -1.20899436 0 0 Z " fill="#F7F7F7" transform="translate(776,317)"/>
<path d="M0 0 C6.24810683 3.8862795 10.6386074 9.71128581 12.90234375 16.68359375 C14.52498028 23.98035551 13.9933247 30.0367881 10.6484375 36.7265625 C10.1121875 37.4690625 9.5759375 38.2115625 9.0234375 38.9765625 C8.25 40.245 8.25 40.245 7.4609375 41.5390625 C2.39323092 46.60676908 -5.25068672 48.74257697 -12.3046875 49.29296875 C-17.72103893 48.65155871 -22.34949962 45.71940905 -26.9765625 42.9765625 C-25.9865625 42.4815625 -25.9865625 42.4815625 -24.9765625 41.9765625 C-23.09375 42.75390625 -23.09375 42.75390625 -20.8515625 43.9140625 C-14.91834584 46.64808874 -10.21559739 46.87532467 -3.9140625 44.8515625 C2.46706367 42.13112168 6.65668283 38.50707053 9.4609375 32.1015625 C11.68270664 25.66708823 11.93464236 20.71687941 9.3359375 14.2890625 C6.54370795 8.57679008 2.67978322 4.87725261 -2.9765625 1.9765625 C-10.01515433 -0.154525 -16.88524079 0.06556634 -23.4765625 3.3515625 C-26.07109343 4.7920326 -28.50495706 6.32882554 -30.9765625 7.9765625 C-29.48178136 4.17166505 -27.28214036 2.31465415 -23.9765625 -0.0234375 C-16.95713358 -2.36324714 -7.04502912 -2.4223066 0 0 Z " fill="#845A40" transform="translate(790.9765625,308.0234375)"/>
<path d="M0 0 C8.53719809 8.17455605 14.79732549 18.25592763 20.6875 28.4375 C21.13375732 29.18217529 21.58001465 29.92685059 22.03979492 30.6940918 C24.81840979 35.64452312 25.43524627 38.47029483 24 44 C23.01 44 22.02 44 21 44 C20.73896484 43.38181396 20.47792969 42.76362793 20.20898438 42.12670898 C12.27561167 22.11226992 12.27561167 22.11226992 1.27734375 3.73046875 C0 2 0 2 0 0 Z " fill="#663819" transform="translate(832,180)"/>
<path d="M0 0 C0.33 0 0.66 0 1 0 C0.23894602 8.17461515 -0.80038284 16.29789617 -1.89453125 24.43359375 C-2.02214844 25.39394531 -2.14976562 26.35429687 -2.28125 27.34375 C-2.39533203 28.19130859 -2.50941406 29.03886719 -2.62695312 29.91210938 C-3.60411612 38.00056329 -4.14987966 45.91891942 -4.1328125 54.0703125 C-4.13376923 55.1090451 -4.13472595 56.14777771 -4.13571167 57.21798706 C-4.13638876 59.41143861 -4.13456754 61.60489221 -4.13037109 63.79833984 C-4.12509295 67.06743179 -4.1302923 70.33638145 -4.13671875 73.60546875 C-4.14081741 88.092585 -3.7249441 102.53141635 -3 117 C-3.33 117 -3.66 117 -4 117 C-5.63567566 106.63632272 -6.28808941 96.54541363 -6.23046875 86.0546875 C-6.22927202 84.58594809 -6.22882483 83.1172079 -6.2290802 81.64846802 C-6.2275337 78.60478771 -6.21937973 75.56122811 -6.20581055 72.51757812 C-6.18867086 68.62522662 -6.1850016 64.73300489 -6.18575573 60.84062004 C-6.1854837 57.82256849 -6.17999968 54.80454503 -6.17275429 51.78650284 C-6.16958631 50.35043677 -6.16760462 48.91436756 -6.16686058 47.47829819 C-6.16468565 45.47884717 -6.15513222 43.47940831 -6.14526367 41.47998047 C-6.14145187 40.3460788 -6.13764008 39.21217712 -6.13371277 38.04391479 C-6.01049462 35.2389057 -5.60072394 32.73454225 -5 30 C-4.70640571 26.33007135 -4.49475745 22.65975325 -4.28125 18.984375 C-4 16 -4 16 -3 15 C-2.71437237 12.25706804 -2.55160727 9.51391162 -2.37890625 6.76171875 C-2.00943111 4.06874012 -1.36432437 2.32542737 0 0 Z " fill="#1C0802" transform="translate(517,294)"/>
<path d="M0 0 C1.32 0 2.64 0 4 0 C4 0.66 4 1.32 4 2 C4.99 2.3403125 4.99 2.3403125 6 2.6875 C9.26957163 4.11793759 12.07355098 5.90254788 15.03515625 7.87890625 C16.93773488 9.09126931 16.93773488 9.09126931 19.05859375 9.46484375 C21.45601167 10.12570141 22.30587518 11.21694474 24 13 C29.12602642 16.07124397 34.57337273 17.97730164 40.27734375 19.6796875 C41.11394531 19.92976562 41.95054687 20.17984375 42.8125 20.4375 C44.11380859 20.82228516 44.11380859 20.82228516 45.44140625 21.21484375 C47.73684017 21.91924408 49.98829449 22.69555726 52.25 23.5 C57.38301329 25.24780022 62.65331436 26.27616173 67.9609375 27.3515625 C71 28 71 28 74 29 C74 29.33 74 29.66 74 30 C68.87044485 30.16611254 64.21844175 29.63860988 59.25 28.4375 C58.52119629 28.26186523 57.79239258 28.08623047 57.04150391 27.90527344 C42.42957969 24.21272941 29.0580505 18.44151552 16 11 C14.33361199 10.10364843 12.6669884 9.20773451 11 8.3125 C7.11256048 6.13641906 3.53738582 3.70948701 0 1 C0 0.67 0 0.34 0 0 Z " fill="#5F3A27" transform="translate(602,583)"/>
<path d="M0 0 C4.27972414 8.55944828 4.30035915 17.84111118 4.1875 27.25 C4.18685547 28.28640625 4.18621094 29.3228125 4.18554688 30.390625 C4.15510323 35.69458466 3.92251904 40.77485214 3 46 C2.01 45.67 1.02 45.34 0 45 C0 30.15 0 15.3 0 0 Z " fill="#57321C" transform="translate(711,447)"/>
<path d="M0 0 C0.66 0.33 1.32 0.66 2 1 C1.81824219 1.65484375 1.63648438 2.3096875 1.44921875 2.984375 C-0.19530587 8.95526437 -1.76211356 14.9393509 -3.2421875 20.953125 C-3.75350242 23.00892725 -4.2799185 25.0610244 -4.8203125 27.109375 C-6.2147279 32.44335234 -7.27003551 37.55642337 -7.75390625 43.046875 C-8.10522292 45.83510257 -9.07925304 48.3528525 -10 51 C-10.37531446 53.32694964 -10.71917202 55.65976685 -11 58 C-11.66 57.67 -12.32 57.34 -13 57 C-12.12787163 37.59514368 -6.10218615 18.30655845 0 0 Z " fill="#835A40" transform="translate(529,253)"/>
<path d="M0 0 C5.61 0 11.22 0 17 0 C21.62543032 12.82505681 25.07982038 27.83681465 20 41 C18.16021723 38.29443711 17.97883104 37.14495355 18.4609375 33.84375 C19.02319546 29.8346063 18.97564359 26.07823068 18.6875 22.0625 C18.64117432 21.3602832 18.59484863 20.65806641 18.54711914 19.93457031 C18.18456069 15.0635042 17.34871318 10.67553902 16 6 C16 4.68 16 3.36 16 2 C14.576875 2.2784375 14.576875 2.2784375 13.125 2.5625 C8.35520074 3.26768593 3.75075712 2.62132638 -1 2 C-0.67 1.34 -0.34 0.68 0 0 Z " fill="#835B40" transform="translate(680,119)"/>
<path d="M0 0 C0.66 0.33 1.32 0.66 2 1 C2.18669959 4.08054323 1.91984319 6.26282963 1.01098633 9.24291992 C-0.00464579 13.01726492 -0.2725343 16.15349373 -0.30078125 20.05078125 C-0.30624466 20.70311234 -0.31170807 21.35544342 -0.31733704 22.02754211 C-0.32883401 24.12274586 -0.32262871 26.217296 -0.3125 28.3125 C-0.31167419 29.02565369 -0.31084839 29.73880737 -0.30999756 30.47357178 C-0.27777414 42.53564699 0.00875409 54.74897939 4.1640625 66.2109375 C5.04736477 69.15803011 4.85920713 70.15952658 4 73 C-4.51755908 49.67631735 -5.17691696 24.15894581 0 0 Z " fill="#402618" transform="translate(662,261)"/>
<path d="M0 0 C0.66 0 1.32 0 2 0 C2.495 1.03125 2.99 2.0625 3.5 3.125 C6.03804543 7.64014604 9.74865503 10.18296802 14 13 C14 12.01 14 11.02 14 10 C13.34 10 12.68 10 12 10 C12 8.68 12 7.36 12 6 C11.34 6 10.68 6 10 6 C9.67 4.02 9.34 2.04 9 0 C12.45321249 3.22635458 14.45774742 6.97332387 16.75 11.0625 C17.17410156 11.79533203 17.59820313 12.52816406 18.03515625 13.28320312 C18.43089844 13.98509766 18.82664062 14.68699219 19.234375 15.41015625 C19.59756836 16.05090088 19.96076172 16.69164551 20.33496094 17.35180664 C20.66415527 18.16766235 20.66415527 18.16766235 21 19 C20.67 19.66 20.34 20.32 20 21 C11.78386175 16.24563429 4.28316885 11.55901981 0.5625 2.5 C0.376875 1.675 0.19125 0.85 0 0 Z " fill="#865C43" transform="translate(662,366)"/>
<path d="M0 0 C11.44703256 0.2297762 22.0114293 3.01209651 33 6 C33 6.33 33 6.66 33 7 C25.86250329 6.5230705 19.06721058 5.23508538 12.1015625 3.62109375 C8.87350104 2.86909759 8.87350104 2.86909759 5 3 C5.14168137 4.43791516 5.28851043 5.8753237 5.4375 7.3125 C5.51871094 8.11300781 5.59992187 8.91351563 5.68359375 9.73828125 C5.95265693 12.16087179 5.95265693 12.16087179 7 15 C7.0685495 16.89470816 7.08480372 18.7916834 7.0625 20.6875 C7.05347656 21.68136719 7.04445313 22.67523438 7.03515625 23.69921875 C7.02355469 24.45847656 7.01195312 25.21773437 7 26 C6.67 26 6.34 26 6 26 C5.73445312 24.7934375 5.46890625 23.586875 5.1953125 22.34375 C4.83859941 20.72915391 4.48182532 19.11457129 4.125 17.5 C3.95097656 16.70851562 3.77695312 15.91703125 3.59765625 15.1015625 C2.47864527 10.04529067 1.27766555 5.01857819 0 0 Z " fill="#845B41" transform="translate(720,120)"/>
<path d="M0 0 C4.41166502 1.47055501 5.4532157 4.45602881 7.703125 8.37109375 C9.3176047 11.64381916 9.86260176 14.35894652 10 18 C10.061875 19.2375 10.12375 20.475 10.1875 21.75 C10 25 10 25 8 28 C8 28.99 8 29.98 8 31 C5.9375 33.3125 5.9375 33.3125 3 36 C2.4225 36.53496094 1.845 37.06992187 1.25 37.62109375 C-4.2970051 42.60622549 -4.2970051 42.60622549 -8 43 C-8.66 42.34 -9.32 41.68 -10 41 C-9.22076172 40.65388672 -9.22076172 40.65388672 -8.42578125 40.30078125 C-1.81034734 37.20705707 2.31036068 34.01815149 5.3125 27.1875 C7.67335787 20.67345951 7.9665116 15.81474337 5.1875 9.3125 C3.62645087 6.10151637 1.93715111 3.00258422 0 0 Z " fill="#8B6045" transform="translate(640,313)"/>
<path d="M0 0 C0.495 1.485 0.495 1.485 1 3 C-7.51670822 16.15820474 -20.53996105 26.75638971 -33 36 C-33.66 35.67 -34.32 35.34 -35 35 C-33.7315625 33.93072266 -33.7315625 33.93072266 -32.4375 32.83984375 C-29.49501254 30.3573643 -26.5584891 27.86793061 -23.62402344 25.37597656 C-22.28718935 24.24332519 -20.94508593 23.11689604 -19.6015625 21.9921875 C-12.00892144 15.53994312 -6.01804695 7.90211636 0 0 Z " fill="#190502" transform="translate(837,548)"/>
<path d="M0 0 C0.66 0 1.32 0 2 0 C1.37465172 3.2738822 0.20609484 5.45893421 -1.6875 8.1875 C-2.23019531 8.98414063 -2.77289062 9.78078125 -3.33203125 10.6015625 C-4.36166946 12.08211956 -5.39914813 13.55730117 -6.44921875 15.0234375 C-10.34649781 20.59708043 -13.34680107 26.47437339 -16.28466797 32.59204102 C-18.80481125 37.80481125 -18.80481125 37.80481125 -21 40 C-20.49868871 34.34234403 -18.27455069 30.32333055 -15.5 25.5 C-15.0572876 24.71625 -14.6145752 23.9325 -14.15844727 23.125 C-10.5584251 16.81712116 -6.7156961 10.68489907 -2.71484375 4.625 C-1.02988314 2.15540972 -1.02988314 2.15540972 0 0 Z " fill="#432718" transform="translate(691,201)"/>
<path d="M0 0 C1.26346142 3.79038426 0.80586696 6.10497636 0 10 C-0.69996094 11.15048828 -0.69996094 11.15048828 -1.4140625 12.32421875 C-3.18040578 15.30437921 -4.13307041 18.12195581 -5.125 21.4375 C-5.45757813 22.52933594 -5.79015625 23.62117187 -6.1328125 24.74609375 C-6.95302618 27.82374238 -7.53456227 30.85117125 -8 34 C-8.33 34 -8.66 34 -9 34 C-10.27513652 22.2120713 -5.70938871 10.15002438 0 0 Z " fill="#84593F" transform="translate(719,554)"/>
<path d="M0 0 C0.33 0 0.66 0 1 0 C0.55647603 5.21140665 -0.7885032 9.17987978 -3.0625 13.88671875 C-4.06133548 15.96022657 -4.06133548 15.96022657 -4.5 18.14453125 C-5 20 -5 20 -7 22 C-7.6425235 24.06874034 -7.6425235 24.06874034 -8 26 C-8.66 26 -9.32 26 -10 26 C-10.12375 26.804375 -10.2475 27.60875 -10.375 28.4375 C-10.684375 29.7059375 -10.684375 29.7059375 -11 31 C-11.66 31.33 -12.32 31.66 -13 32 C-10.98117839 24.42187827 -8.13227298 17.46917963 -4.8125 10.375 C-4.34908203 9.37082031 -3.88566406 8.36664063 -3.40820312 7.33203125 C-2.2780103 4.88522204 -1.14188844 2.4413671 0 0 Z " fill="#7D563E" transform="translate(543,220)"/>
<path d="M0 0 C0.66 0 1.32 0 2 0 C0.125 5.75 0.125 5.75 -1 8 C-2.12407085 18.148754 0.46011846 24.69017768 6 33 C4.125 32.875 4.125 32.875 2 32 C0.75 28.9375 0.75 28.9375 0 26 C-0.66 26 -1.32 26 -2 26 C-4.86408598 18.76279348 -5.4547418 13.44093607 -3 6 C-1.375 2.375 -1.375 2.375 0 0 Z " fill="#855C42" transform="translate(758,316)"/>
<path d="M0 0 C4.30843738 1.43614579 6.49297597 4.28477162 9 8 C9.875 11.4375 9.875 11.4375 10 14 C10.99 14.33 11.98 14.66 13 15 C14.5 16.9609375 14.5 16.9609375 16 19.375 C17.79654264 22.24759683 19.50456158 24.69766098 22 27 C21.67 27.66 21.34 28.32 21 29 C12.6098121 20.05807639 5.69579294 10.86662801 0 0 Z " fill="#573521" transform="translate(552,528)"/>
<path d="M0 0 C4.38675361 1.16119948 6.15938445 3.33140242 8.9140625 6.79296875 C12.30613648 10.38196089 16.28020372 13.24130281 20.23803711 16.17944336 C24.89829202 19.69487605 24.89829202 19.69487605 26 23 C16.00507836 18.52431583 7.35085637 8.96224288 0 1 C0 0.67 0 0.34 0 0 Z " fill="#5A3725" transform="translate(576,560)"/>
<path d="M0 0 C0.99 0.33 1.98 0.66 3 1 C2.57589844 1.4125 2.15179687 1.825 1.71484375 2.25 C-1.49480662 5.41027113 -4.54719667 8.60612344 -7.4375 12.0625 C-10.84872508 16.03967834 -14.69186738 19.04585192 -19 22 C-18.43867066 18.4628562 -17.30442253 17.00738321 -14.5625 14.75 C-13.94503906 14.22921875 -13.32757812 13.7084375 -12.69140625 13.171875 C-11 12 -11 12 -9 12 C-8.74476563 11.42765625 -8.48953125 10.8553125 -8.2265625 10.265625 C-6.86912841 7.75826267 -5.28025896 5.8669544 -3.375 3.75 C-2.74335937 3.04359375 -2.11171875 2.3371875 -1.4609375 1.609375 C-0.97882812 1.07828125 -0.49671875 0.5471875 0 0 Z " fill="#5F3924" transform="translate(829,555)"/>
<path d="M0 0 C1.13360712 3.40082136 0.84527772 5.5420457 0 9 C-0.14695312 9.7425 -0.29390625 10.485 -0.4453125 11.25 C-0.60773437 12.054375 -0.77015625 12.85875 -0.9375 13.6875 C-1.09089844 14.45449219 -1.24429688 15.22148438 -1.40234375 16.01171875 C-2 18 -2 18 -4 20 C-4.28875 20.78375 -4.5775 21.5675 -4.875 22.375 C-6.12907507 25.30117515 -7.65266093 26.88739484 -10 29 C-8.24715107 23.59819151 -6.24785281 18.30877056 -4.2109375 13.00976562 C-2.58119478 8.71728668 -1.20189239 4.43197819 0 0 Z " fill="#402516" transform="translate(718,502)"/>
<path d="M0 0 C1.58111445 4.74334336 -0.91362557 8.78163999 -3.0234375 13.08984375 C-3.70823014 14.43111054 -4.39822139 15.76973767 -5.09375 17.10546875 C-6.15540254 19.20654354 -6.15540254 19.20654354 -7.0625 22.4375 C-7.371875 23.283125 -7.68125 24.12875 -8 25 C-8.99 25.33 -9.98 25.66 -11 26 C-8.83925927 16.63679016 -4.41552796 8.45348108 0 0 Z " fill="#8A5E43" transform="translate(705,224)"/>
<path d="M0 0 C0.99 0.33 1.98 0.66 3 1 C-3.06920749 5.5221546 -7.38771195 8.28875671 -15.1875 8.25 C-16.23292969 8.25515625 -17.27835938 8.2603125 -18.35546875 8.265625 C-21 8 -21 8 -23 6 C-22.09378906 5.98582031 -21.18757812 5.97164063 -20.25390625 5.95703125 C-13.02968596 5.67417818 -7.78147245 5.1221664 -1.76953125 0.9609375 C-1.18558594 0.64382813 -0.60164062 0.32671875 0 0 Z " fill="#220C06" transform="translate(639,347)"/>
<path d="M0 0 C0.96349722 2.60144251 1.0123938 3.94670665 0.375 6.6875 C-1 9 -1 9 -3.625 9.8125 C-4.800625 9.9053125 -4.800625 9.9053125 -6 10 C-7.4783226 7.04335481 -7.06032783 4.25770263 -7 1 C-4.69 1.66 -2.38 2.32 0 3 C0 2.01 0 1.02 0 0 Z " fill="#B87C50" transform="translate(537,323)"/>
<path d="M0 0 C0 0.66 0 1.32 0 2 C-0.9075 1.67 -1.815 1.34 -2.75 1 C-9.56136361 -0.90662916 -17.12413574 -1.30854543 -23.5625 1.875 C-25.77777267 3.16128736 -27.86601397 4.57734264 -30 6 C-29.9375 4.25 -29.9375 4.25 -29 2 C-21.35863637 -4.36780303 -8.46264964 -5.16015222 0 0 Z " fill="#865D44" transform="translate(637,309)"/>
<path d="M0 0 C0.75925781 0.08765625 1.51851562 0.1753125 2.30078125 0.265625 C2.63078125 0.925625 2.96078125 1.585625 3.30078125 2.265625 C2.55957031 2.49378906 1.81835938 2.72195313 1.0546875 2.95703125 C-2.2652307 4.53458103 -3.58980646 6.26262347 -5.76171875 9.203125 C-8.17832783 12.4523875 -10.33138027 14.99289659 -13.69921875 17.265625 C-14.35921875 16.935625 -15.01921875 16.605625 -15.69921875 16.265625 C-14.32421875 14.765625 -14.32421875 14.765625 -12.69921875 13.265625 C-12.03921875 13.265625 -11.37921875 13.265625 -10.69921875 13.265625 C-10.42722656 12.70359375 -10.15523437 12.1415625 -9.875 11.5625 C-8.63671207 9.14351892 -7.31760978 6.8261931 -5.88671875 4.515625 C-5.40589844 3.71640625 -4.92507813 2.9171875 -4.4296875 2.09375 C-2.69921875 0.265625 -2.69921875 0.265625 0 0 Z " fill="#150401" transform="translate(745.69921875,365.734375)"/>
<path d="M0 0 C3.92831698 3.72342275 7.12478934 7.65071309 10.25 12.0625 C10.69601562 12.67416016 11.14203125 13.28582031 11.6015625 13.91601562 C13.74512328 16.92024854 15.25985067 19.39103578 16 23 C14.29115995 21.37660195 12.62553283 19.70680947 11 18 C11 17.34 11 16.68 11 16 C10.38253906 15.74992188 9.76507812 15.49984375 9.12890625 15.2421875 C6.61898765 13.77768454 6.08272044 12.75256206 4.9375 10.125 C3.55319186 7.10469133 2.03051793 4.63967331 0 2 C0 1.34 0 0.68 0 0 Z " fill="#5C3A25" transform="translate(832,180)"/>
<path d="M0 0 C1.06863281 0.01804687 2.13726563 0.03609375 3.23828125 0.0546875 C4.04652344 0.07789063 4.85476563 0.10109375 5.6875 0.125 C5.6875 0.455 5.6875 0.785 5.6875 1.125 C4.99785156 1.13917969 4.30820312 1.15335937 3.59765625 1.16796875 C-3.37443636 1.52183353 -8.76982673 2.71985726 -14.3125 7.125 C-16.20722413 9.36253486 -17.7143538 11.6551377 -19.3125 14.125 C-19.9725 14.125 -20.6325 14.125 -21.3125 14.125 C-19.96736964 8.57633728 -15.78636216 5.32522212 -11.3125 2.125 C-7.43342078 0.15985591 -4.32212489 -0.09499176 0 0 Z " fill="#230D07" transform="translate(624.3125,307.875)"/>
<path d="M0 0 C0.33 0 0.66 0 1 0 C2.99111524 18.10383238 2.99111524 18.10383238 -0.546875 23.25 C-1.02640625 23.8275 -1.5059375 24.405 -2 25 C-1.85803484 22.14559413 -1.71154174 19.29153804 -1.5625 16.4375 C-1.52318359 15.63763672 -1.48386719 14.83777344 -1.44335938 14.01367188 C-1.19251844 9.28628494 -0.74678186 4.67523099 0 0 Z " fill="#7D553D" transform="translate(515,310)"/>
<path d="M0 0 C0.33 0 0.66 0 1 0 C1.02505615 0.65484375 1.0501123 1.3096875 1.07592773 1.984375 C1.19292655 4.98973236 1.31517635 7.99485485 1.4375 11 C1.47681641 12.02996094 1.51613281 13.05992187 1.55664062 14.12109375 C1.79200347 19.80601169 2.23772258 25.36299051 3 31 C3 31.99 3 32.98 3 34 C2.34 34 1.68 34 1 34 C0.04622816 29.99679847 -0.1157616 26.27788253 -0.09765625 22.16796875 C-0.09443359 20.87568359 -0.09121094 19.58339844 -0.08789062 18.25195312 C-0.07953665 16.89713474 -0.07107172 15.54231703 -0.0625 14.1875 C-0.05748 12.81315265 -0.05291797 11.43880355 -0.04882812 10.06445312 C-0.03705668 6.70959076 -0.02061283 3.35481779 0 0 Z " fill="#946344" transform="translate(513,365)"/>
<path d="M0 0 C2.38199084 2.25323458 4.26156473 4.66376717 6.1875 7.3125 C9.21416062 11.27690803 12.39031001 14.10154005 16.49609375 16.90625 C16.99238281 17.2671875 17.48867188 17.628125 18 18 C18 18.33 18 18.66 18 19 C15.78515625 19.28515625 15.78515625 19.28515625 13 19 C7.51734506 14.40492495 3.08466829 8.43756861 0 2 C0 1.34 0 0.68 0 0 Z " fill="#875E46" transform="translate(653,373)"/>
<path d="M0 0 C0.66 0.33 1.32 0.66 2 1 C-2.95 9.91 -2.95 9.91 -8 19 C-8.66 18.67 -9.32 18.34 -10 18 C-9.731875 17.484375 -9.46375 16.96875 -9.1875 16.4375 C-7.90637805 13.88626206 -7.90637805 13.88626206 -6.6875 10.6875 C-5.00538408 6.6816363 -2.61185075 3.45893748 0 0 Z " fill="#3E2616" transform="translate(719,538)"/>
<path d="M0 0 C2.53354248 1.26677124 2.69801435 2.25629673 3.8125 4.8125 C6.72756051 10.83624128 11.03565489 13.225886 17 16 C15.31640625 16.6875 15.31640625 16.6875 13 17 C8.06819348 14.63148628 3.14216005 11.37575316 0.875 6.25 C0 3 0 3 0 0 Z " fill="#855D44" transform="translate(601,338)"/>
<path d="M0 0 C6.573451 4.10257935 12.33268868 8.72122776 18 14 C17.01 14.495 17.01 14.495 16 15 C15.01 14.67 14.02 14.34 13 14 C12.67 13.01 12.34 12.02 12 11 C9.23611815 9.11513753 6.36701549 7.48589681 3.46875 5.81640625 C1 4 1 4 0.15625 1.77734375 C0.1046875 1.19082031 0.053125 0.60429687 0 0 Z " fill="#845A42" transform="translate(799,149)"/>
<path d="M0 0 C0.99 0.33 1.98 0.66 3 1 C-7.64886761 9.46805377 -7.64886761 9.46805377 -11 11 C-13.13671875 10.5625 -13.13671875 10.5625 -15 10 C-14.25234375 9.61328125 -13.5046875 9.2265625 -12.734375 8.828125 C-11.74953125 8.30734375 -10.7646875 7.7865625 -9.75 7.25 C-8.77546875 6.73953125 -7.8009375 6.2290625 -6.796875 5.703125 C-4.08506801 4.05180119 -2.13203597 2.33508701 0 0 Z " fill="#693F29" transform="translate(802,580)"/>
<path d="M0 0 C1.53841275 4.3770324 0.09361162 6.78818417 -1.80859375 10.8046875 C-3.25782593 13.47507598 -4.96547012 15.74748478 -7 18 C-7.66 17.67 -8.32 17.34 -9 17 C-8.27683594 15.78763672 -8.27683594 15.78763672 -7.5390625 14.55078125 C-6.90742187 13.48214844 -6.27578125 12.41351562 -5.625 11.3125 C-4.99851562 10.25675781 -4.37203125 9.20101562 -3.7265625 8.11328125 C-2.24557287 5.442809 -1.05086185 2.86067949 0 0 Z " fill="#81573E" transform="translate(737,521)"/>
<path d="M0 0 C3.54251554 0.2132388 6.69818029 0.66414928 10 2 C12.66447962 5.09782356 15 8.81638136 15 13 C14.34 13 13.68 13 13 13 C12.67 11.35 12.34 9.7 12 8 C11.34 8 10.68 8 10 8 C9.67 7.01 9.34 6.02 9 5 C6.90280128 3.97718482 6.90280128 3.97718482 4.4375 3.3125 C3.61121094 3.06113281 2.78492188 2.80976563 1.93359375 2.55078125 C1.29550781 2.36902344 0.65742187 2.18726563 0 2 C0 1.34 0 0.68 0 0 Z " fill="#805942" transform="translate(681,397)"/>
<path d="M0 0 C2.44457392 2.25044599 4.09902934 4.55801293 5.75 7.4375 C6.19859375 8.19933594 6.6471875 8.96117187 7.109375 9.74609375 C8.13203743 12.33414736 7.95772637 13.43633001 7 16 C6.34 16 5.68 16 5 16 C4.731875 15.175 4.46375 14.35 4.1875 13.5 C3.30075588 10.88643838 2.36589695 8.32351436 1.375 5.75 C0 2 0 2 0 0 Z " fill="#5A3823" transform="translate(848,203)"/>
<path d="M0 0 C0.99 0.33 1.98 0.66 3 1 C-2.94 6.445 -2.94 6.445 -9 12 C-9.33 11.01 -9.66 10.02 -10 9 C-8.71142987 7.68445979 -7.41904109 6.37265903 -6.125 5.0625 C-5.04605469 3.96615234 -5.04605469 3.96615234 -3.9453125 2.84765625 C-2 1 -2 1 0 0 Z " fill="#1D0804" transform="translate(592,155)"/>
<path d="M0 0 C-1 2 -1 2 -4.0625 3.125 C-8.14805925 4.18640302 -11.78824761 4.28078349 -16 4 C-16.99 3.34 -17.98 2.68 -19 2 C-18.15695312 1.93941406 -17.31390625 1.87882812 -16.4453125 1.81640625 C-15.34960938 1.73261719 -14.25390625 1.64882813 -13.125 1.5625 C-12.03445313 1.48128906 -10.94390625 1.40007812 -9.8203125 1.31640625 C-6.26459339 0.91749593 -3.69350534 -0.09719751 0 0 Z " fill="#210C05" transform="translate(791,351)"/>
<path d="M0 0 C-1.35236577 2.93879484 -2.89942659 5.29232911 -5 7.75 C-5.515625 8.36359375 -6.03125 8.9771875 -6.5625 9.609375 C-8 11 -8 11 -10 11 C-8.85791626 6.08903993 -5.88128996 0 0 0 Z " fill="#160603" transform="translate(768,311)"/>
<path d="M0 0 C2.44839588 3.67259383 4 6.54648201 4 11 C0.37 10.67 -3.26 10.34 -7 10 C-7 9.67 -7 9.34 -7 9 C-3.535 8.505 -3.535 8.505 0 8 C0 5.36 0 2.72 0 0 Z " fill="#5F3D2A" transform="translate(685,604)"/>
<path d="M0 0 C0.99 0.33 1.98 0.66 3 1 C0.36 6.28 -2.28 11.56 -5 17 C-6.19196962 13.42409115 -5.76618616 12.89394025 -4.1875 9.625 C-3.81496094 8.83480469 -3.44242188 8.04460937 -3.05859375 7.23046875 C-2.53458984 6.12638672 -2.53458984 6.12638672 -2 5 C-1.32165413 3.33805262 -0.64800425 1.67401097 0 0 Z " fill="#573723" transform="translate(862,503)"/>
<path d="M0 0 C0.99 0 1.98 0 3 0 C2.01 5.94 1.02 11.88 0 18 C-0.66 17.34 -1.32 16.68 -2 16 C-1.81864449 13.23286597 -1.5356614 10.6080224 -1.125 7.875 C-1.02058594 7.12089844 -0.91617188 6.36679687 -0.80859375 5.58984375 C-0.54895402 3.72515844 -0.27574971 1.86237113 0 0 Z " fill="#815941" transform="translate(691,258)"/>
<path d="M0 0 C3 1 3 1 4.38671875 3.328125 C4.81597656 4.29234375 5.24523437 5.2565625 5.6875 6.25 C6.34298828 7.68085938 6.34298828 7.68085938 7.01171875 9.140625 C7.99265067 11.97873633 8.20075771 14.0266156 8 17 C5.92250415 13.88375623 4.43655823 10.77723557 2.875 7.375 C2.33617187 6.20710938 1.79734375 5.03921875 1.2421875 3.8359375 C0 1 0 1 0 0 Z " fill="#80573D" transform="translate(536,496)"/>
<path d="M0 0 C0.33 0 0.66 0 1 0 C1.69888677 2.74755487 2.3843988 5.49731197 3.0625 8.25 C3.26166016 9.02730469 3.46082031 9.80460937 3.66601562 10.60546875 C3.84970703 11.35957031 4.03339844 12.11367188 4.22265625 12.890625 C4.39547119 13.58188477 4.56828613 14.27314453 4.74633789 14.98535156 C5.03156637 17.25070809 4.68076195 18.8368312 4 21 C-0.11196775 14.83204838 -0.26793858 7.23434167 0 0 Z " fill="#261008" transform="translate(519,441)"/>
<path d="M0 0 C0.33 0.66 0.66 1.32 1 2 C0.25 4.25 0.25 4.25 -1 7 C-1.45375 8.051875 -1.9075 9.10375 -2.375 10.1875 C-4.11555577 13.20000038 -4.93992805 13.67145025 -8 15 C-6.85657478 12.68628057 -5.71038936 10.37400323 -4.5625 8.0625 C-4.23701172 7.40314453 -3.91152344 6.74378906 -3.57617188 6.06445312 C-1.11328125 1.11328125 -1.11328125 1.11328125 0 0 Z " fill="#845A40" transform="translate(714,208)"/>
<path d="M0 0 C1.5778125 0.4021875 1.5778125 0.4021875 3.1875 0.8125 C3.1875 1.8025 3.1875 2.7925 3.1875 3.8125 C1.33125 3.7815625 1.33125 3.7815625 -0.5625 3.75 C-3.4765825 3.74483319 -6.02203327 3.88234442 -8.8125 4.8125 C-4.75096154 -0.23365385 -4.75096154 -0.23365385 0 0 Z " fill="#C3885E" transform="translate(612.8125,197.1875)"/>
<path d="M0 0 C0.66 0.33 1.32 0.66 2 1 C-2.95 7.93 -2.95 7.93 -8 15 C-8.33 13.68 -8.66 12.36 -9 11 C-8.34 11 -7.68 11 -7 11 C-6.67 9.68 -6.34 8.36 -6 7 C-5.34 7 -4.68 7 -4 7 C-3.8453125 6.1028125 -3.8453125 6.1028125 -3.6875 5.1875 C-2.91123545 2.71756736 -1.92911079 1.67748765 0 0 Z " fill="#1D0803" transform="translate(566,182)"/>
<path d="M0 0 C0.33 0 0.66 0 1 0 C0.67 2.31 0.34 4.62 0 7 C-0.99 7.33 -1.98 7.66 -3 8 C-4.21869929 10.50447516 -4.21869929 10.50447516 -5 13 C-5.66 12.67 -6.32 12.34 -7 12 C-5.85865673 9.99743426 -4.71181367 7.99800203 -3.5625 6 C-2.92441406 4.88625 -2.28632812 3.7725 -1.62890625 2.625 C-1.09136719 1.75875 -0.55382812 0.8925 0 0 Z " fill="#81583C" transform="translate(727,540)"/>
<path d="M0 0 C0 0.66 0 1.32 0 2 C-4.62 2 -9.24 2 -14 2 C-13.67 1.34 -13.34 0.68 -13 0 C-8.37072828 -0.99847037 -4.61588935 -1.013244 0 0 Z " fill="#382215" transform="translate(709,389)"/>
<path d="M0 0 C0.94875 0.04125 1.8975 0.0825 2.875 0.125 C3.205 0.785 3.535 1.445 3.875 2.125 C2.225 2.125 0.575 2.125 -1.125 2.125 C-2.07524979 5.82041586 -2.07524979 8.42958414 -1.125 12.125 C-5.02208405 7.86256432 -5.02208405 7.86256432 -5.5 4.4375 C-4.88633908 0.65325766 -3.74879752 0.1499519 0 0 Z " fill="#1E0803" transform="translate(658.125,365.875)"/>
<path d="M0 0 C0.33 0 0.66 0 1 0 C0.67373505 6.32278971 0.38495108 11.55464391 -3 17 C-4.29065057 13.1280483 -3.22324098 10.55767399 -2.0625 6.8125 C-1.76956055 5.83120117 -1.76956055 5.83120117 -1.47070312 4.83007812 C-0.98817437 3.21772593 -0.49509795 1.60853711 0 0 Z " fill="#452919" transform="translate(667,244)"/>
<path d="M0 0 C1 3 1 3 -0.43359375 6.35546875 C-1.09148807 7.6380304 -1.75989743 8.91524057 -2.4375 10.1875 C-2.77587891 10.84169922 -3.11425781 11.49589844 -3.46289062 12.16992188 C-4.29969098 13.78459299 -5.14869746 15.39292763 -6 17 C-7.1849117 13.4452649 -6.78854631 12.89162368 -5.25 9.625 C-4.87875 8.83480469 -4.5075 8.04460937 -4.125 7.23046875 C-2.86836015 4.73900572 -1.51292771 2.34503794 0 0 Z " fill="#402718" transform="translate(708,201)"/>
<path d="M0 0 C4.03321763 1.21934486 7.54269479 2.55954927 11 5 C11 5.66 11 6.32 11 7 C11.66 7.33 12.32 7.66 13 8 C9.18008284 8 7.88692091 6.76738773 4.8125 4.5625 C3.91144531 3.92441406 3.01039063 3.28632813 2.08203125 2.62890625 C1.39496094 2.09136719 0.70789063 1.55382812 0 1 C0 0.67 0 0.34 0 0 Z " fill="#1B0803" transform="translate(793,144)"/>
<path d="M0 0 C1.485 0.99 1.485 0.99 3 2 C5.64632287 1.6878236 5.64632287 1.6878236 8 1 C8.33 2.32 8.66 3.64 9 5 C6.36 5 3.72 5 1 5 C0.67 3.35 0.34 1.7 0 0 Z " fill="#352218" transform="translate(696,611)"/>
<path d="M0 0 C0.66 0.33 1.32 0.66 2 1 C0.02 5.29 -1.96 9.58 -4 14 C-4.33 14 -4.66 14 -5 14 C-5 12.02 -5 10.04 -5 8 C-4.34 8 -3.68 8 -3 8 C-2.690625 6.865625 -2.38125 5.73125 -2.0625 4.5625 C-1 1 -1 1 0 0 Z " fill="#1B0703" transform="translate(716,199)"/>
<path d="M0 0 C2 3 2 3 1.609375 5.2265625 C1.32578125 6.01804688 1.0421875 6.80953125 0.75 7.625 C0.47671875 8.42164063 0.2034375 9.21828125 -0.078125 10.0390625 C-1 12 -1 12 -3 13 C-2.45144652 8.428721 -1.58255197 4.32564205 0 0 Z " fill="#84583F" transform="translate(724,180)"/>
<path d="M0 0 C2.375 0.6875 2.375 0.6875 5 2 C6.3125 4.625 6.3125 4.625 7 7 C4.0625 5.75 4.0625 5.75 1 4 C0.125 1.8125 0.125 1.8125 0 0 Z " fill="#86644F" transform="translate(676,380)"/>
<path d="M0 0 C0.33 0.99 0.66 1.98 1 3 C-1.24844471 6.3310292 -3.68270834 8.74898066 -7 11 C-7.66 10.67 -8.32 10.34 -9 10 C-7.625 8.5 -7.625 8.5 -6 7 C-5.34 7 -4.68 7 -4 7 C-3.71125 6.401875 -3.4225 5.80375 -3.125 5.1875 C-2 3 -2 3 0 0 Z " fill="#1F0B06" transform="translate(739,372)"/>
<path d="M0 0 C0.33 0 0.66 0 1 0 C0.125 7.625 0.125 7.625 -1 11 C-1.99 11.33 -2.98 11.66 -4 12 C-3.52309796 10.37433394 -3.04340334 8.74948689 -2.5625 7.125 C-2.29566406 6.22007812 -2.02882813 5.31515625 -1.75390625 4.3828125 C-1 2 -1 2 0 0 Z " fill="#7C563E" transform="translate(698,238)"/>
<path d="M0 0 C1.19287411 3.87684087 2 6.91621923 2 11 C-0.64465038 7.8745041 -1.84414715 4.91211733 -3 1 C-1 0 -1 0 0 0 Z " fill="#78543E" transform="translate(733,392)"/>
<path d="M0 0 C-1.38877354 3.35620271 -2.91677965 5.07298728 -6 7 C-6.66 7 -7.32 7 -8 7 C-6.47663111 3.31852519 -4.31953005 0 0 0 Z " fill="#F2A29C" transform="translate(789,365)"/>
<path d="M0 0 C-1.32 0.33 -2.64 0.66 -4 1 C-4 1.66 -4 2.32 -4 3 C-6.64 3.33 -9.28 3.66 -12 4 C-8.15336308 0.86570325 -4.95471579 -1.65157193 0 0 Z " fill="#805840" transform="translate(643,130)"/>
<path d="M0 0 C2.40034102 3.60051153 4.32187705 6.96144535 3.625 11.375 C3.41875 11.91125 3.2125 12.4475 3 13 C1.32889958 10.03821227 0.67317248 7.62928808 0.375 4.25 C0.30023437 3.45078125 0.22546875 2.6515625 0.1484375 1.828125 C0.09945312 1.22484375 0.05046875 0.6215625 0 0 Z " fill="#5B3825" transform="translate(873,257)"/>
<path d="M0 0 C7.50769231 0.61538462 7.50769231 0.61538462 10 2.5625 C10.33 3.036875 10.66 3.51125 11 4 C10.67 4.66 10.34 5.32 10 6 C6.7 4.35 3.4 2.7 0 1 C0 0.67 0 0.34 0 0 Z " fill="#553423" transform="translate(615,592)"/>
<path d="M0 0 C0.75 1.5625 0.75 1.5625 1 4 C-0.13084437 6.50286409 -1.52139516 8.67007722 -3 11 C-3.75 9.4375 -3.75 9.4375 -4 7 C-2.86915563 4.49713591 -1.47860484 2.32992278 0 0 Z " fill="#482A19" transform="translate(726,524)"/>
<path d="M0 0 C-1 2 -1 2 -3.3125 3.1875 C-6.11989571 4.03624754 -7.301935 3.99928333 -10 3 C-6.41600853 0.61067235 -4.26804999 0 0 0 Z " fill="#462B1C" transform="translate(725,397)"/>
<path d="M0 0 C1.46534385 3.80989402 0.55203911 6.3241179 -1 10 C-1.99 10.495 -1.99 10.495 -3 11 C-2.69217504 9.35328588 -2.37860766 7.70764424 -2.0625 6.0625 C-1.88847656 5.14597656 -1.71445312 4.22945312 -1.53515625 3.28515625 C-1 1 -1 1 0 0 Z " fill="#8C5E42" transform="translate(539,230)"/>
<path d="M0 0 C0.33 0 0.66 0 1 0 C1.08096803 1.45742463 1.13917774 2.91612807 1.1875 4.375 C1.22230469 5.18710938 1.25710938 5.99921875 1.29296875 6.8359375 C1.19628906 7.55007812 1.09960938 8.26421875 1 9 C0.01 9.66 -0.98 10.32 -2 11 C-1.34 7.37 -0.68 3.74 0 0 Z " fill="#442817" transform="translate(708,158)"/>
<path d="M0 0 C2.64 0 5.28 0 8 0 C7.401875 0.2475 6.80375 0.495 6.1875 0.75 C3.71352479 2.16370012 2.56629745 3.65055383 1 6 C0.67 4.02 0.34 2.04 0 0 Z " fill="#483021" transform="translate(704,119)"/>
<path d="M0 0 C2.31 0 4.62 0 7 0 C4.37801226 2.15377564 2.35595828 3.40072174 -1 4 C-0.67 2.68 -0.34 1.36 0 0 Z " fill="#EC9E98" transform="translate(611,380)"/>
<path d="M0 0 C2.64465038 3.1254959 3.84414715 6.08788267 5 10 C2 9 2 9 0.8125 6.6875 C0 4 0 4 0 0 Z " fill="#3D2518" transform="translate(694,342)"/>
<path d="M0 0 C-1.49097658 3.7952131 -3.75700849 5.61042731 -7 8 C-7 5 -7 5 -4.625 2.3125 C-2 0 -2 0 0 0 Z " fill="#150301" transform="translate(799,343)"/>
<path d="M0 0 C0.66 0.66 1.32 1.32 2 2 C-1.75 7.875 -1.75 7.875 -4 9 C-2.80100302 5.9168649 -1.52299523 2.93720508 0 0 Z " fill="#452817" transform="translate(697,191)"/>
<path d="M0 0 C1.88391785 3.26545761 2.49287967 6.28111761 3 10 C0 8 0 8 -0.75 5 C-1 2 -1 2 0 0 Z " fill="#7C563D" transform="translate(697,120)"/>
<path d="M0 0 C0.66 0.99 1.32 1.98 2 3 C0.35 4.98 -1.3 6.96 -3 9 C-3.66 8.67 -4.32 8.34 -5 8 C-3.35 5.36 -1.7 2.72 0 0 Z " fill="#1D0803" transform="translate(851,528)"/>
<path d="M0 0 C0.66 0.99 1.32 1.98 2 3 C0.68 5.31 -0.64 7.62 -2 10 C-3 8 -3 8 -2.44140625 6.0546875 C-2.15136719 5.33539062 -1.86132812 4.61609375 -1.5625 3.875 C-1.27503906 3.15054688 -0.98757813 2.42609375 -0.69140625 1.6796875 C-0.46324219 1.12539063 -0.23507812 0.57109375 0 0 Z " fill="#79523B" transform="translate(741,511)"/>
</svg>
